<?xml version="1.0" encoding="utf-8"?>
<!-- Generator: Adobe Illustrator 27.5.0, SVG Export Plug-In . SVG Version: 6.00 Build 0)  -->
<svg version="1.1" xmlns="http://www.w3.org/2000/svg" xmlns:xlink="http://www.w3.org/1999/xlink" x="0px" y="0px"
	 viewBox="0 0 1000 1000" style="enable-background:new 0 0 1000 1000;" xml:space="preserve">
<g id="Layer_1">
	<rect style="fill:#FFFFFF;" width="1000" height="1000"/>
</g>
<g id="Layer_3">
	<g>
		<g>
			<polygon style="fill:#FFFFFF;stroke:#231F20;stroke-miterlimit:10;" points="462.411,617.75 399.431,642.709 403.846,630 
				462.674,603.625 			"/>
		</g>
		<g>
			<polygon style="fill:#FFFFFF;stroke:#231F20;stroke-miterlimit:10;" points="464.077,586.319 408.991,610.767 400.431,597.667 
				465.532,567.667 			"/>
		</g>
		<g>
			<g>
				<path style="fill:#58595B;" d="M247.825,945.001c0,0,73.443-113.895,115.425-118.029c32.674-3.218,30.025,29.441,30.025,29.441
					c-29.236,0.308-90.061,38.15-104.951,88.588C272.875,945.001,247.825,945.001,247.825,945.001z"/>
			</g>
		</g>
		<g>
			<g>
				<polygon style="fill:#FFFFFF;stroke:#231F20;stroke-miterlimit:10;" points="477.097,176.668 462.122,188.243 455.099,171.169 
					471.142,158.886 				"/>
			</g>
		</g>
		<path style="fill:#58595B;" d="M470.117,149.896c-0.011,0.009-16.071,12.518-16.464,13.949c-0.581,2.109-0.086,4.915-0.059,7.133
			c-0.033,0.19-0.024,0.389,0.059,0.589c2.323,5.647,4.646,11.294,6.969,16.941c-0.012,13.005-1.706,44.212-4.601,83.829
			l-0.092,0.218l0.074,0.031c-7.64,104.476-23.608,267.174-39.1,308.923l-18.516,8.55v6.896l-0.163,0.075l9.646,14.761
			l-5.451,17.744l-4.152,11.952l-40.169,108.329l-32.209,8.655l1.038,3.863l2.567-0.689l-0.746,17.033l-4.105,0.933l3.923,19.093
			l-93.705,146.295h12.964h2.2l37.739-54.015c39.22-46.766,73.303-70.036,91.169-62.249c11.102,4.837,15.181,21.778,11.798,48.992
			l-15.52,69.271h32.143l-9.201-24.8l0.619-0.732h12.49v-3h-9.953l16.262-19.231l-1.146-0.969l1.344-0.666l-9.812-19.814
			l13.994-1.519l-0.323-2.982l-11.089,1.203l16.812-19.073l-1.125-0.992l-0.2-1.486l-13.269,1.785l3.947-18.083l0.082-0.099
			l0.242-0.04l8.548,15.511l2.627-1.447l-8.039-14.587l10.804-1.8l-0.493-2.959l-10.758,1.793l16.126-19.417l-1.253-1.041
			l0.613-0.102l-0.491-2.959l-26.32,4.369l1.781-7.802l27.811-5.591l-0.591-2.941l-2.499,0.503l3.386-4.277l0.403-0.046
			l-0.046-0.404l0.674-0.851l-0.848-0.672l-0.442-3.86l0.013-0.031l2.564-2.896l-0.969-0.858l0.379-0.893l-1.841-0.781l-0.608,1.431
			l-0.234-2.046l4.686-5.131l-1.42-1.298l2.008-0.457v-20.975l0.04,0.068l2.576-1.537l-8.388-14.059l5.015-7.002l3.944-1.06
			l-0.869-3.233l6.486-9.055l-0.636-0.455l1.988-0.563l-0.816-2.887l-12.556,3.551l2.058-13.897l8.217,10.964l2.4-1.799
			l-8.996-12.002l12.916-18.645l-1.233-0.855l-0.367-1.454l-9.782,2.468l2.013-13.598l0.282-0.383l7.036,10.261l2.475-1.697
			l-7.625-11.119l11.91-16.144l-1.207-0.891l-0.4-1.445l-9.697,2.683l1.077-7.275l-2.968-0.439l-1.271,8.59l-8.029,2.222
			l0.746-4.806l2.233-1.497l-1.625-2.425l2.671-17.207l21.675-8.59l0.326-17.487l-0.825,0.37l-2.491-5.18l4.292-9.015l0.31-0.138
			l1.723-22.093l-1.571,0.724l0.518-7.197l-4.691,2.166l-1.417-2.144l7.475-16.497l-0.598-0.27l1.732-0.864l-1.182-2.367
			l1.257-0.873l-6.49-9.343l8.35-18.036l-1.361-0.63l-0.705-1.324l-11.644,6.197l5.383-13.145l5.228,7.388l2.449-1.732l-6.33-8.944
			l6.381-15.582l1.459-0.768l-1.378-2.62l1.312-0.886l-6.339-9.379l6.971-16.576l0.873-0.546l-0.795-1.272l1.177-0.93l-7.11-8.996
			l6.027-13.918l2.095-1.422l-0.294-0.433l0.704-0.4l-1.484-2.607l-0.91,0.518l-5.547-8.169l6.108-14.508l2.337-1.567l-1.03-1.536
			l0.095-0.225l1.387-1.002l-1.758-2.432l-1.467,1.06l-4.499-6.708l6.733-16.184l1.328-0.957l-6.478-8.994l5.821-14.814l1.367-0.931
			l-1.689-2.479l-0.745,0.508l-4.261-5.893l4.94-13.953l2.091-1.642l-0.58-0.739l0.272-0.194l-1.742-2.442l-0.384,0.274
			l-3.831-4.879l4.787-12.813l1.766-1.466l-5.472-6.589l5.404-13.994l-0.191-0.074l0.794-0.616l-1.84-2.37l-0.223,0.173l-3.22-3.683
			l4.677-11.942l-0.248-0.097l0.132-0.106l-0.248-0.308l1.16-1.033l-5.005-5.623l3.619-10.511l1.38-1.148l-0.854-1.025l0.546-0.552
			l-4.155-4.106l3.675-9.466l-0.313-0.122l1.021-0.954l-0.211-0.226l0.28-0.258l-4.17-4.532l2.821-8.993l1.369-1.161l-1.615-1.906
			l0.828-0.798l-2.623-2.722l2.155-6.169l-0.606-0.211l2.673-2.288l-1.951-2.279l-4.634,3.966l1.476-4.125l1.425,1.285l2.01-2.227
			l-2.342-2.112l2.42-6.762l-0.568-0.204l1.365-1.182l-1.965-2.268l-5.474,4.742c0.021-0.677,0.038-1.274,0.053-1.763
			c2.443-1.889,4.888-3.777,7.331-5.667c0.108-0.07,0.204-0.154,0.288-0.249c0.451-0.452,0.447-0.999,0.185-1.451
			c-0.787-2.348-1.573-4.695-2.359-7.044l0.108-0.074l-0.259-0.376c-0.922-2.75,1.109-16.803,1.109-16.803
			S470.387,149.64,470.117,149.896z M470.384,161.341c0.731,2.184,1.463,4.369,2.194,6.553l-13.418,9.233
			c-0.75-1.823-1.5-3.646-2.25-5.47C461.401,168.219,465.893,164.78,470.384,161.341z M467.124,201.605
			c-0.01,0.317-0.02,0.638-0.031,0.961l-1.472,1.26l0.885-2.863L467.124,201.605z M464.673,244.154l1.071-3.225
			c-0.053,1.399-0.107,2.816-0.161,4.248L464.673,244.154z M464.921,248.945l-2.542,2.115l1.202-3.62L464.921,248.945z
			 M462.994,239.689l-0.624,1.878l-0.629-0.707L462.994,239.689z M462.309,236.223l2.098-4.853l1.504,1.487L462.309,236.223z
			 M465.684,228.415l0.566-1.31c-0.021,0.601-0.042,1.197-0.064,1.806L465.684,228.415z M462.204,223.965l3.369-2.855l-2.179,5.042
			l-1.244-1.229C462.168,224.603,462.186,224.282,462.204,223.965z M464.974,217.686l0.567-1.638l0.598,0.65L464.974,217.686z
			 M466.656,212.829l0.103-0.301c-0.004,0.132-0.009,0.268-0.014,0.4L466.656,212.829z M465.067,208.248l-0.718,2.074l-0.751-0.816
			L465.067,208.248z M463.32,201.112c0.043-1.158,0.083-2.271,0.117-3.333l0.691,0.717L463.32,201.112z M463.234,213.542
			l-0.552,1.593c0.036-0.702,0.071-1.395,0.105-2.078L463.234,213.542z M462.116,229.107l-0.244,0.563
			c0.015-0.252,0.03-0.508,0.045-0.759L462.116,229.107z M460.948,244.48l0.332,0.372l-0.443,1.335
			C460.873,245.615,460.911,245.048,460.948,244.48z M460.117,256.846l3.781-3.147l-2.576,6.096l-1.306-1.494
			C460.05,257.813,460.083,257.331,460.117,256.846z M465.059,258.659c-0.067,1.71-0.137,3.433-0.207,5.173l-1.334-1.526
			L465.059,258.659z M449.063,566.661l-3.107-4.059l3.776-6.72l-0.52,10.71L449.063,566.661z M454.8,410.59l-4.818,10.285
			l-2.748-4.819L454.8,410.59z M449.382,410.804l4.157-10.595l3.458,5.093L449.382,410.804z M456.335,414.387
			c-0.397,4.546-0.888,9.613-1.459,15.069l-3.074-5.392L456.335,414.387z M453.556,433.198l-8.225,4.68l4.913-10.488
			L453.556,433.198z M443.314,442.478l9.175-5.221l-5.614,12.302l-3.492-6.554l-0.137,0.073
			C443.269,442.877,443.291,442.678,443.314,442.478z M453.461,442.353c-0.587,5.131-1.227,10.485-1.911,15.979l-2.898-5.439
			L453.461,442.353z M450.386,462.527l-8.579,5.364l5.276-11.563L450.386,462.527z M448.967,466.953l-5.879,12.056l-2.832-6.609
			L448.967,466.953z M449.778,472.134c-0.745,5.628-1.526,11.331-2.336,17.033l-2.793-6.516L449.778,472.134z M445.504,492.263
			l-7.456,3.923l4.863-9.972L445.504,492.263z M442.783,519.793l-0.179,0.532l-2.763-7.043l6.021-13.257
			C444.865,506.728,443.834,513.36,442.783,519.793z M441.782,543.152c0.774-4.088,1.544-8.35,2.308-12.747l1.325,4.092
			L441.782,543.152z M446.832,538.872l2.74,8.457l-7.955,3.969L446.832,538.872z M445.283,524.357l5.65-3.008l-3.738,8.907
			L445.283,524.357z M440.606,523.448l-7.1,3.779l4.605-10.139L440.606,523.448z M438.102,546.229l-2.613-4.189l5.355-10.756
			C439.935,536.49,439.019,541.498,438.102,546.229z M437.25,550.532c-0.224,1.111-0.447,2.205-0.671,3.279l-9.25,4.615l6.59-13.235
			L437.25,550.532z M449.074,550.93l-5.102,9.08l-3.62-4.729L449.074,550.93z M448.612,534.633l2.431-5.793l-0.561,11.565
			L448.612,534.633z M445.724,520.724c0.028-0.173,0.057-0.347,0.085-0.52l3.814-11.35l1.851,8.81L445.724,520.724z
			 M449.727,494.757c0.069-0.478,0.139-0.957,0.208-1.435l2.118-1.115l-1.761,5.239L449.727,494.757z M450.46,489.656
			c1.232-8.682,2.396-17.371,3.465-25.803l0.278-0.174l-1.194,24.636L450.46,489.656z M454.868,396.824l3.517-8.961
			c-0.31,4.377-0.626,8.632-0.948,12.744L454.868,396.824z M457.018,383.132l-4.192,10.684l-3.578-5.269L457.018,383.132z
			 M450.494,384.022l4.413-10.635l3.456,5.152L450.494,384.022z M456.287,370.06l3.854-9.289c-0.278,4.664-0.564,9.256-0.854,13.76
			L456.287,370.06z M453.886,357.473l3.159-8.37l3.005,4.172L453.886,357.473z M451.496,362.729l6.391-4.352l-3.606,8.691
			l-2.8-4.174C451.486,362.839,451.491,362.784,451.496,362.729z M458.316,345.734l3.14-8.318c-0.21,3.952-0.425,7.881-0.645,11.782
			L458.316,345.734z M459.405,323.009l3.188-8.012c-0.188,3.874-0.38,7.751-0.577,11.624L459.405,323.009z M460.225,329.264
			l-4.621,3.297l2.486-6.249L460.225,329.264z M460.778,301.371l2.754-6.531c-0.142,3.147-0.286,6.311-0.434,9.487L460.778,301.371z
			 M461.607,307.284l-4.906,3.757l2.745-6.51L461.607,307.284z M461.92,290.942l-3.26,7.731l-1.503-1.914
			c0.06-0.756,0.119-1.508,0.178-2.26L461.92,290.942z M459.753,288.826l1.319-3.88l1.442,1.737L459.753,288.826z M462.206,281.615
			l2.178-6.401c-0.119,2.835-0.241,5.697-0.365,8.583L462.206,281.615z M459.958,278.908l-1.311-1.58
			c0.049-0.665,0.099-1.329,0.147-1.99l3.277-2.642L459.958,278.908z M463.935,267.341l-3.86,3.113l2.145-5.075L463.935,267.341z
			 M458.825,282.24l-0.703,2.067c0.068-0.893,0.136-1.785,0.203-2.67L458.825,282.24z M457.328,301.833l-0.706,1.675
			c0.063-0.782,0.124-1.559,0.187-2.337L457.328,301.833z M455.631,315.64l5.002-3.83l-3.311,8.319l-1.852-2.561
			C455.525,316.923,455.578,316.282,455.631,315.64z M456.008,323.432l-1.308,3.288c0.13-1.525,0.259-3.047,0.387-4.562
			L456.008,323.432z M453.765,337.56l6.064-4.328l-3.617,9.582l-2.593-3.601C453.668,338.662,453.717,338.109,453.765,337.56z
			 M454.941,346.181l-2.545,6.743c0.277-3.058,0.551-6.104,0.82-9.139L454.941,346.181z M452.9,370.396l-2.754,6.639
			c0.302-3.143,0.599-6.281,0.894-9.414L452.9,370.396z M451.498,397.201l-4.513,11.499c0.544-5.246,1.08-10.51,1.606-15.78
			L451.498,397.201z M448.425,424.2l-4.022,8.586c0.482-4.352,0.958-8.733,1.428-13.134L448.425,424.2z M442.674,448.054
			l2.633,4.941l-4.347,9.527C441.537,457.758,442.109,452.932,442.674,448.054z M441.351,482.571l-3.996,8.193
			c0.591-4.39,1.178-8.864,1.759-13.412L441.351,482.571z M435.993,500.658l8.262-4.348l-5.941,13.079l-2.613-6.661
			C435.798,502.041,435.896,501.35,435.993,500.658z M436.585,513.197l-3.636,8.004c0.632-4.037,1.261-8.196,1.886-12.466
			L436.585,513.197z M431.227,531.839l8.148-4.337l-5.75,11.55l-2.846-4.563C430.928,533.613,431.077,532.729,431.227,531.839z
			 M432.055,542.203l-4.247,8.529c0.736-3.738,1.469-7.686,2.198-11.813L432.055,542.203z M425.259,562.81l8.249-4.115
			l-6.415,11.313l-2.549-4.098l-0.012,0.008C424.773,564.904,425.016,563.874,425.259,562.81z M434.594,562.861
			c-1.052,4.522-2.092,8.529-3.106,11.915l-1.109,0.512l-1.481-2.381L434.594,562.861z M427.634,576.556l-1.092,0.504l0.67-1.182
			L427.634,576.556z M435.094,573.111c1.201-4.285,2.426-9.34,3.657-14.985l3.621,4.73l-5.231,9.31L435.094,573.111z
			 M444.356,565.448l1.915,2.502l-4.484,2.07L444.356,565.448z M452.284,565.174l0.575-11.853l3.789,5.733l-2.351,5.189
			L452.284,565.174z M454.356,522.451l4.458,6.417l-5.327,11.506L454.356,522.451z M451.51,503.241l0.905-2.694l-0.276,5.69
			L451.51,503.241z M457.244,462.892l4.425,6.548l-5.361,12.748L457.244,462.892z M458.549,435.971l4.164,5.268l-4.977,11.492
			L458.549,435.971z M459.834,409.479l3.539,5.212l-4.286,10.179L459.834,409.479z M461.696,383.508l2.858,4.262l-3.828,9.2
			C461.056,392.62,461.379,388.125,461.696,383.508z M463.321,357.816l2.815,3.909l-3.613,9.195
			C462.795,366.621,463.06,362.247,463.321,357.816z M464.573,335.277l2.094,2.897l-2.654,7.499
			C464.203,342.227,464.389,338.759,464.573,335.277z M465.715,312.517l1.669,2.126l-2.038,5.456
			C465.472,317.57,465.594,315.042,465.715,312.517z M466.675,291.694l1.758,2.116l-2.097,5.429
			C466.451,296.713,466.565,294.196,466.675,291.694z M467.542,271.467l1.591,1.82l-1.867,4.767
			C467.36,275.839,467.452,273.647,467.542,271.467z M468.294,252.734l1.355,1.524l-1.599,4.643
			C468.134,256.822,468.215,254.764,468.294,252.734z M468.934,235.845l1.15,1.137l-1.319,3.398
			C468.823,238.849,468.879,237.335,468.934,235.845z M469.491,220.34l1.004,1.091l-1.175,3.744
			C469.379,223.523,469.436,221.92,469.491,220.34z M470.027,204.615l1.189,1.234l-1.361,3.894
			C469.915,207.961,469.972,206.254,470.027,204.615z M465.14,195.221l-0.644-0.669l1.161-1.006L465.14,195.221z M459.721,262.522
			l0.303,0.346l-0.393,0.93C459.661,263.371,459.691,262.946,459.721,262.522z M423.529,569.958l1.879,3.021l-3.538,6.239
			l-1.176,0.543C421.638,576.914,422.583,573.629,423.529,569.958z M463.838,570.1l-1.186,15.212l-39.609,17.578l-0.25-0.051
			l-0.036,0.178l-13.207,5.861l-6.912-10.576L463.838,570.1z M450.335,597.118l-1.389-2.442l3.647-1.619L450.335,597.118z
			 M453.649,597.33l-0.564,4.624l-1.015-1.784L453.649,597.33z M431.631,611.976l-1.407-1.85l2.497-3.652L431.631,611.976z
			 M436.667,601.99l1.612,2.366l-3.016,4.719L436.667,601.99z M440.117,607.053l2.631,3.862l-7.146,3.204L440.117,607.053z
			 M441.874,604.303l2.548-3.987l-0.835,6.503L441.874,604.303z M447.678,598.515l0.951,1.672l-1.515,2.725L447.678,598.515z
			 M440.037,601.606l-1.557-2.286l4.213-1.87L440.037,601.606z M428.311,607.609l-2.147-2.823l5.853-2.598L428.311,607.609z
			 M416.64,616.185l4.628-5.873l-1.833,8.984L416.64,616.185z M424.809,607.961l1.717,2.258l-3.104,4.54L424.809,607.961z
			 M414.605,613.921l-2.572-2.863l7.423-3.294L414.605,613.921z M412.721,616.313l-5.082,6.449l2.771-9.021L412.721,616.313z
			 M414.755,618.578l3.13,3.483l-9.083,4.072L414.755,618.578z M428.44,612.735l2.412,3.172l-0.074,0.374l-6.867,3.078
			L428.44,612.735z M441.11,614.937l-1.595,10.273l-15.585,6.177l3.882-10.488L441.11,614.937z M450.364,603.238l1.932,3.397
			l-5.088,2.28L450.364,603.238z M456.936,595.156l0.64,1.33l-1.079,2.266L456.936,595.156z M405.051,631.104l18.926-8.485
			l-3.796,10.254l-18.259,7.236L405.051,631.104z M430.009,799.015l-2.218,0.446l2.032-2.296L430.009,799.015z M431.628,795.126
			l2.227-2.515l-2.005,4.719L431.628,795.126z M397.207,862.841l6.154,12.429l-9.221,1.001L397.207,862.841z M390.901,896.769
			l12.771-14.488l-3.162,14.488H390.901z M399.854,899.769l-3.721,17.047l-6.391-17.047H399.854z M393.434,879.364l9.74-1.057
			l-12.82,14.544L393.434,879.364z M393.549,918.469h-9.044l3.423-14.992L393.549,918.469z M394.673,921.469l0.052,0.138
			l-14.983,17.719l4.078-17.856H394.673z M396.895,927.396l6.038,16.105h-9.553L396.895,927.396z M390.31,943.501h-10.169
			l13.707-16.209L390.31,943.501z M402.925,899.769h10.266l-13.838,16.364L402.925,899.769z M403.58,896.769l3.19-14.616
			l7.237,14.616H403.58z M398.955,859.608l9.958-1.34l-3.25,14.888L398.955,859.608z M394.98,675.33l-3.696,10.055l-2.979-6.715
			L394.98,675.33z M391.872,673.529l6.911-8.545l-2.292,6.233L391.872,673.529z M426.836,706.898l-14.675,9.39l3.101-11.101
			l11.605,1.514L426.836,706.898z M332.163,808.72l3.022-2.949l0.028,1.361l-2.997,2.967L332.163,808.72z M330.288,812.007
			l-3.243,3.209l-0.084-1.419l3.273-3.194L330.288,812.007z M337.602,798.846l2.366-0.538l-2.878,2.809l-0.035-1.715
			L337.602,798.846z M373.674,749.775l2.233-0.601v3.308l-4.283,11.57l-3.292-7.529l0.463-1.26L373.674,749.775z M410.596,790.732
			l-0.173-2.872l1.138-1.352L410.596,790.732z M415.743,781.67l0.144-0.631l4.168-0.948l-4.062,4.572L415.743,781.67z
			 M412.443,782.643l-0.142-0.119l-2.053,2.44l-0.155-2.56l0.052-0.059l2.496-0.567L412.443,782.643z M397.573,805.396l-0.079-2.176
			l2.961-3.518l-2.441,5.195L397.573,805.396z M397.137,793.291l-0.066-1.839l1.811-1.933L397.137,793.291z M401.029,787.26
			l0.122,2.176l-2.35,2.638L401.029,787.26z M397.264,796.807l4.046-4.542l0.174,3.111l-4.096,4.867L397.264,796.807z
			 M395.468,802.523l-3.337,3.964l3.228-6.976L395.468,802.523z M403.362,793.144l-0.168-2.996l3.701-4.155l-3.139,6.683
			L403.362,793.144z M408.271,785.416l0.106,1.769l-2.121,2.52L408.271,785.416z M403.036,787.319l-0.118-2.106l0.184-0.196
			l-0.206-0.192l-0.046-0.82l3.936-0.896L403.036,787.319z M400.873,784.471l-3.904,4.166l-0.118-3.268l4.021-0.915L400.873,784.471
			z M377.908,808.977V806.6l3.519-3.931l-2.475,5.193L377.908,808.977z M366.118,800.114l0.007-2.05l2.999-3.322l-2.153,4.404
			L366.118,800.114z M377.264,748.817h-0.025l0.028-0.008L377.264,748.817z M380.819,747.856l5.588-1.502v14.827l-8.5,6.292v-11.751
			L380.819,747.856z M410.4,760.126l-7.604-7.345l8.904-6.592v13.641L410.4,760.126z M384.168,796.609l-0.068-1.93l2.507-2.882
			l-2.126,4.462L384.168,796.609z M375.908,792.023v3.175l-3.232,3.598l3.219-6.757L375.908,792.023z M377.908,789.678l3.721-0.847
			l-3.721,4.142V789.678z M380.633,792.931l-2.726,5.42v-2.387L380.633,792.931z M382.018,792.402l0.056,1.561l-1.992,2.29
			L382.018,792.402z M383.91,789.284l0.446-0.497l-0.358-0.321l0.061-0.122l-0.089-0.045l3.778-0.859l-3.751,4.313L383.91,789.284z
			 M390.644,745.215l7.519,7.263l-9.755,7.222v-13.883L390.644,745.215z M394.023,744.308l5.587-1.501v6.898L394.023,744.308z
			 M397.828,756.459l-1.945,6.966l-7.475,1.698v-1.689L397.828,756.459z M386.408,765.578l-1.294,0.294l1.294-0.958V765.578z
			 M399.61,761.233v1.345l-0.401,0.091L399.61,761.233z M401.61,755.807l5.294,5.113l-5.294,1.203V755.807z M401.61,742.269
			l0.196-0.053l-0.196,0.702V742.269z M390.667,741.066l-2.907-2.808l9.738,0.973L390.667,741.066z M387.289,741.975l-4.767,1.281
			l1.604-4.336L387.289,741.975z M375.908,767.964l-2.34,0.532l-0.21-0.482l2.55-6.891V767.964z M348.353,799.893l-0.82,0.792
			l-0.188-2.746l1.717-1.699l2.225-0.506L348.353,799.893z M343.702,797.459l1.582-0.36l0.004,0.062l-3.146,3.114l0.009-1.302
			L343.702,797.459z M345.468,799.797l0.184,2.703l-3.55,3.426l0.02-2.817L345.468,799.797z M353.982,797.116l1.677-2.378
			l1.034-0.234l-2.7,2.852L353.982,797.116z M356.555,797.559l-2.332,4.789l-0.102-2.219L356.555,797.559z M358.156,796.555l0,1.629
			l-1.798,2.064L358.156,796.555z M360.157,793.716l2.358-0.536l-2.358,2.707L360.157,793.716z M362.364,796.398l-2.21,4.665
			l0-2.129L362.364,796.398z M364.136,794.992l-0.008,2.301l-2.277,2.523L364.136,794.992z M366.145,792.354l3.07-0.698
			l-3.079,3.413L366.145,792.354z M370.054,795.114l-0.008,0.539l-0.574,0.651L370.054,795.114z M372.109,791.433l0.495-0.548
			l2.053-0.468l-2.576,2.926L372.109,791.433z M373.483,794.777l-1.468,3.082l0.021-1.438L373.483,794.777z M375.908,798.19v2.863
			l-4.008,4.608l0.045-3.06L375.908,798.19z M373.795,806.528l-1.91,3.799l-0.055,0.062l0.024-1.628L373.795,806.528z
			 M375.908,804.554v1.281l-1.469,1.64L375.908,804.554z M377.908,801.8l4.27-4.908l0.066,1.867l-4.336,4.842V801.8z
			 M388.681,789.769l0.09,1.699l-1.923,2.148L388.681,789.769z M390.527,786.808l3.037-0.691l-2.901,3.241L390.527,786.808z
			 M393.051,789.687l-2.135,4.474l-0.104-1.973L393.051,789.687z M394.946,788.04l0.096,2.653l-2.776,2.963L394.946,788.04z
			 M413.701,759.376v-14.667l7.901-5.849l0.225,0.315l-2.953,19.024L413.701,759.376z M413.701,740.976v-1.956l4.147-1.114
			L413.701,740.976z M411.701,742.456l-8.631,6.39l2.104-7.534l6.527-1.754V742.456z M388.058,735.274l19.1-12.222l-3.839,13.745
			L388.058,735.274z M386.403,732.771l10.563-28.536l10.647,14.964L386.403,732.771z M394.68,700.435l-6.719,2.686l3.584-9.751
			L394.68,700.435z M393.055,689.376l11.505-14.301l-8.119,21.934L393.055,689.376z M391.782,704.824l-8.006,9.686l2.794-7.603
			L391.782,704.824z M380.659,722.988l11.165-13.506l-8.238,22.255l-3.001-8.548L380.659,722.988z M378.97,744.21l-0.458,0.123
			l0.707-0.795L378.97,744.21z M366.838,760.592l3.286,7.517l-0.473,1.277l-5.401,1.228v-2.979L366.838,760.592z M340.137,800.938
			l-0.009,1.329l-2.953,2.924l-0.027-1.335L340.137,800.938z M335.269,809.892l0.053,2.579l-2.907,2.807l-0.094-2.467
			L335.269,809.892z M337.23,807.95l2.878-2.849l-0.02,2.767l-2.805,2.708L337.23,807.95z M340.069,810.668l-0.007,0.977
			l-2.68,3.799l-0.043-2.141L340.069,810.668z M342.082,808.725l0.126-0.121l-0.126,0.179V808.725z M345.241,809.508l0.829-0.876
			l0.217,3.179l-4.259,4.891l0.019-2.664L345.241,809.508z M347.94,806.657l4.271-4.512l0.125,2.72l-4.19,4.811L347.94,806.657z
			 M350.471,810.053l-2.017,4.142l-0.115-1.693L350.471,810.053z M352.489,808.192l0.087,1.901l-2.202,2.439L352.489,808.192z
			 M354.371,805.574l3.783-4.344l-0.001,2.684l-3.671,4.068L354.371,805.574z M356.546,808.68l-1.853,3.911l-0.081-1.768
			L356.546,808.68z M358.152,807.625l-0.001,1.536l-1.573,1.786L358.152,807.625z M360.153,804.683l3.964-4.393l-0.007,2.104
			l-3.958,4.494L360.153,804.683z M363.645,805.948l-3.106,6.357l-0.389,0.433l0.001-2.82L363.645,805.948z M364.092,807.313
			l-0.004,1.041l-1.108,1.233L364.092,807.313z M366.106,803.19l0.041-0.083l3.854-4.376l-0.045,3.092l-3.859,4.296L366.106,803.19z
			 M367.286,807.786l-1.204,2.528l0.004-1.192L367.286,807.786z M366.488,811.785l3.154-6.622l0.268-0.299L369.865,808l-3.273,3.764
			L366.488,811.785z M369.819,811.1v0.016l-0.016,0.003L369.819,811.1z M375.908,808.833v1.058l-1.156,0.232L375.908,808.833z
			 M382.392,802.967l0.042,1.18l-1.229,1.313L382.392,802.967z M384.27,799.493l4.65-5.193l0.146,2.769l-4.705,5.021L384.27,799.493
			z M387.161,802.026l-2.608,5.463l-0.091-2.583L387.161,802.026z M389.224,800.026l0.14,2.642l-3.02,3.391L389.224,800.026z
			 M391.109,797.813l4.034-4.305l0.093,2.568l-3.981,4.47L391.109,797.813z M393.613,800.905l-2.1,4.538l-0.109-2.059
			L393.613,800.905z M395.575,805.501l0.016,0.433l-0.457,0.093L395.575,805.501z M401.708,799.389l0.071,1.272l-1.419,1.599
			L401.708,799.389z M403.525,796.056l5.028-5.974l0.167,2.767l-5.056,5.691L403.525,796.056z M413.81,790.13l0.578-0.65l0.19,2.273
			l-1.53,1.713L413.81,790.13z M416.223,787.415l2.985-3.36l-1.308,3.981l-1.487,1.664L416.223,787.415z M421.635,783.079
			l0.069,0.699l-0.473,0.529L421.635,783.079z M419.672,789.054l2.299-2.573l0.258,2.61l-0.036,0.077l-3.977,4.313L419.672,789.054z
			 M423.781,784.455l1.278-1.431l-1.171,2.512L423.781,784.455z M428.2,781.021l0.148,1.47l-1.687,1.83L428.2,781.021z
			 M423.514,781.753l-0.227-2.289l0.121-0.136l2.853-0.649L423.514,781.753z M406.424,736.833l3.871-13.862l7.659,10.764
			L406.424,736.833z M409.096,716.111l-9.198-12.929l12.358,1.613L409.096,716.111z M400.957,700.296l15.29-9.788l-3.175,11.369
			L400.957,700.296z M417.458,686.17l-18.094,11.583l10.405-28.111L417.785,685L417.458,686.17z M396.217,680.658l2.679-7.288
			l5.331-2.667L396.217,680.658z M384.215,704.618l-5.045,2.017l7.925-9.851L384.215,704.618z M382.823,708.404l-3.8,10.339
			l-2.716-7.734L382.823,708.404z M378.959,727.613l2.72,7.747l-6.273,1.919L378.959,727.613z M371.805,738.381l-5.182,1.586
			l8.282-10.018L371.805,738.381z M378.941,739.336l-5.702,6.414l-1.05,0.282l1.918-5.218L378.941,739.336z M366.597,752.552
			l-0.342-0.782l0.699-0.188L366.597,752.552z M364.599,755.471l-0.349,0.393v-1.191L364.599,755.471z M362.249,764.38l-2.682,7.297
			l-5.673,1.289v-0.938l8.355-9.4V764.38z M333.99,799.668l-2.092,2.128l-0.063-1.638L333.99,799.668z M335.096,801.396l0.033,1.635
			l-3.069,2.995l-0.057-1.483L335.096,801.396z M330.131,807.908l-3.326,3.246l-0.074-1.248l3.346-3.404L330.131,807.908z
			 M324.842,811.828l0.069,1.175l-2.54,2.479l-0.074-1.065L324.842,811.828z M325.068,815.644l0.085,1.444l-2.498,2.473
			l-0.102-1.462L325.068,815.644z M320.749,820.981l-1.445,0.29l1.372-1.339L320.749,820.981z M325.31,819.748l0.018,0.312
			l-0.418,0.084L325.31,819.748z M327.308,819.661l-0.105-1.786l3.189-3.156l0.093,2.421l-2.465,2.379L327.308,819.661z
			 M332.542,818.609l-0.025-0.651l2.86-2.761l0.058,2.831L332.542,818.609z M340.026,816.9l-0.001,0.205l-0.167,0.033L340.026,816.9
			z M345.242,816.057l1.238-1.422l0.079,1.156L345.242,816.057z M350.92,814.915l1.787-1.981l0.074,1.606L350.92,814.915z
			 M358.15,812.19l-0.001,1.271l-1.361,0.273L358.15,812.19z M364.078,811.356l-0.003,0.914l-0.998,0.2L364.078,811.356z
			 M382.533,806.965l0.056,1.583l-1.897,0.382L382.533,806.965z M389.514,805.507l0.086,1.632l-1.875,0.377L389.514,805.507z
			 M400.679,804.911l1.259-1.417l0.064,1.151L400.679,804.911z M403.823,801.373l5.068-5.705l0.121,2.003l-0.097,0.422l-4.965,5.557
			L403.823,801.373z M412.128,797.497l2.68-3l0.197,2.353l-0.06,0.181l-3.604,3.909L412.128,797.497z M419.408,795.141l-2.152,4.615
			l-0.175-2.091L419.408,795.141z M422.616,792.995l0.177,1.796l-2.075,2.271L422.616,792.995z M424.311,789.821l4.304-4.669
			l0.296,2.94l-4.305,4.713L424.311,789.821z M427.234,792.894l-2.134,4.908l-0.229-2.32L427.234,792.894z M430.428,783.185
			l1.945-2.11l-1.752,4.031L430.428,783.185z M430.161,780.524l-0.268-2.672l3.456-0.786L430.161,780.524z M423.426,757.166
			l2.463-3.439v2.879L423.426,757.166z M422.716,753.007l2.658-17.124l0.515-0.138v12.832L422.716,753.007z M427.889,735.207
			l3.018-0.81l2.336,3.914l-5.354,7.475V735.207z M426.045,731.56l0.655-4.219l2.078,3.484L426.045,731.56z M422.876,732.412
			l-1.832,0.492l-9.161-12.876l14.339-9.175L422.876,732.412z M427.327,703.736l-11.25-1.468l3.737-13.381l7.567,14.501
			L427.327,703.736z M412.39,668.178l9.708,1.379l-3.134,11.22L412.39,668.178z M400.407,669.259l4.234-11.519l0.094-0.116
			l3.081,7.929L400.407,669.259z M403.066,653.329l-1.068,2.907l-11.082,13.703L400,645.44L403.066,653.329z M402.336,643.171
			l5.225-2.071l-2.931,7.975L402.336,643.171z M389.57,688.92l-10.558,13.123l7.458-20.111L389.57,688.92z M377.165,722.505
			l-10.409,12.591l7.617-20.541L377.165,722.505z M363.424,744.083l7.082-2.166l-1.863,5.068l-4.009,1.077l-1.453-3.323
			L363.424,744.083z M362.249,758.113l-6.911,7.775l4.607-12.424l2.304-0.619V758.113z M349.112,774.053l-8.32,1.891l0.823-17.553
			l10.28-2.763v10.922L349.112,774.053z M329.972,803.755l-3.095,3.148l3.034-4.737L329.972,803.755z M320.466,816.915l0.028,0.4
			l-0.757,0.738L320.466,816.915z M315.186,825.159l17.879-3.595l-4.616,6.543l-17.435,3.563L315.186,825.159z M324.445,831.988
			l-11.631,10.917l6.671-9.903L324.445,831.988z M305.429,848.501l3.615-13.365l6.247-1.276L305.429,848.501z M287.936,874.472
			l-6.227,9.244l2.004-8.887L287.936,874.472z M286.664,871.567l8.779-8.24l-5.355,7.95L286.664,871.567z M291.772,874.146
			l1.593-0.135l-4.218,4.031L291.772,874.146z M265.098,908.377l-6.207,9.215l3.136-9.067L265.098,908.377z M264.881,905.385
			l6.267-5.99l-3.96,5.88L264.881,905.385z M268.835,908.198l2.431-0.116l-7.282,7.319L268.835,908.198z M270.926,905.095
			l4.339-6.442l-1.421,6.303L270.926,905.095z M292.675,878.82l-6.901,9.783l-3.534,0.19L292.675,878.82z M293.923,870.952
			l3.886-5.768l-1.506,5.567L293.923,870.952z M319.604,840.646l-6.608,9.368l-4.286,0.858L319.604,840.646z M301.277,852.362
			l-4.03,0.807l6.599-10.304L301.277,852.362z M294.999,856.679l3.995-0.801l-8.733,8.198L294.999,856.679z M277.43,889.053
			l-3.278,0.177l4.999-7.804L277.43,889.053z M272.159,892.342l2.149-0.116l-5.35,5.113L272.159,892.342z M253.626,923.638h-1.512
			l3.286-5.131L253.626,923.638z M252.588,926.638l-0.115,0.333l-6.999,7.036l4.719-7.369H252.588z M243.914,939.828l-2.475,3.673
			h-1.18L243.914,939.828z M248.55,938.315l-1.794,5.186h-1.7L248.55,938.315z M255.074,928.629l0.039-0.059l1.923-1.933h1.907
			l-6.24,8.846L255.074,928.629z M260.021,923.638l3.57-3.589l-2.65,3.757v-0.168H260.021z M279.857,891.927l3.713-0.2l-5.392,7.643
			L279.857,891.927z M303.001,857.475l1.867-2.773l5.613-1.124l-10.423,14.775L303.001,857.475z M328.011,833.933l0.133,3.297
			c-1.971,1.61-3.978,3.293-6.028,5.06L328.011,833.933z M331.052,834.888l-0.201-4.982l4.169-5.91l0.101,7.732
			C333.785,832.74,332.428,833.795,331.052,834.888z M338.093,829.511l-0.116-8.934l4.662-0.938l-1.426,7.646
			C340.185,828.004,339.147,828.741,338.093,829.511z M345.81,819.002l2.153-0.433l-1.004,4.888
			c-0.744,0.471-1.494,0.956-2.252,1.456L345.81,819.002z M351.158,817.927l1.513-0.304l-0.915,2.942
			c-0.43,0.245-0.858,0.488-1.293,0.744L351.158,817.927z M356.022,816.949l4.934-0.992c-1.753,0.741-3.562,1.598-5.42,2.555
			L356.022,816.949z M386.876,810.746l-1.171,2.857c-0.599-0.231-1.208-0.443-1.832-0.62c-1.369-0.389-2.801-0.642-4.291-0.771
			L386.876,810.746z M390.411,810.035l1.319-0.265l-2.857,5.377c-0.149-0.089-0.3-0.177-0.451-0.262L390.411,810.035z
			 M395.534,809.006l1.596-0.321l-5.352,8.533c-0.14-0.117-0.279-0.235-0.421-0.349L395.534,809.006z M401.181,807.87l3.083-0.62
			l-9.096,13.429c-0.382-0.469-0.772-0.921-1.173-1.352L401.181,807.87z M401.254,831.643c-0.566-1.482-1.172-2.881-1.82-4.195
			l3.968-5.212L401.254,831.643z M407.266,818.791l7.352,13.339l-0.393,1.799l-10.828,1.804L407.266,818.791z M402.676,838.894
			l9.585-1.597l-12.716,15.311L402.676,838.894z M409.546,816.714l8.753-1.454l-2.71,12.419L409.546,816.714z M405.017,815.163
			l-7.148,9.39c-0.267-0.447-0.543-0.876-0.822-1.299l9.237-13.636L405.017,815.163z M406.56,803.729l1.434-1.604l-0.315,1.38
			L406.56,803.729z M413.439,801.615l-0.257,0.782l-0.569,0.114L413.439,801.615z M423.058,797.468l0.286,2.887l-3.58,0.72
			L423.058,797.468z M427.95,796.264l1.447-3.329l0.153,1.522L427.95,796.264z M435.082,779.86l0.15,1.311l-1.375,1.505
			L435.082,779.86z M427.889,756.151v-5.216l4.473-6.245l-1.6,10.809L427.889,756.151z M433.918,733.587l0.091-0.024l-0.021,0.143
			L433.918,733.587z M431.789,730.018l-3.571-5.985l7.518-2.126l-1.087,7.343L431.789,730.018z M432.248,691.596l6.659,8.885
			l-0.239,1.616l-10.375,14.975L432.248,691.596z M433.603,688.403l7.367-1.858l-1.445,9.759L433.603,688.403z M429.971,686.702
			l-1.815,11.689l-6.066-11.624l8.739-5.594l-0.807,5.195l-0.178,0.241L429.971,686.702z M431.443,677.217l-10.192,6.524
			l3.843-13.76l7.311,1.038L431.443,677.217z M432.866,668.055l-6.957-0.988l2.456-8.793l4.741,8.237L432.866,668.055z
			 M422.912,666.642l-9.115-1.294l11.659-7.815L422.912,666.642z M406.908,654.935l9.125-11.283l-2.333-1.887l-5.844,7.227
			l3.445-9.375l7.48-2.964l-9.258,25.012L406.908,654.935z M361.678,748.791l0.026,0.059l-0.053,0.015L361.678,748.791z
			 M353.894,761.156v-6.065l2.498-0.672L353.894,761.156z M331.519,761.102l8.067-2.167l-0.819,17.468l-7.998,1.817L331.519,761.102
			z M380.131,825.986c-9.466-4.122-23.084-0.565-39.386,10.292c-11.428,7.611-24.224,18.847-37.675,33.009l12.044-17.073
			l0.167,0.181c31.213-28.668,53.38-40.62,67.772-36.525c7.835,2.227,13.371,9.233,16.92,21.382l-5.121,22.426
			C394.63,841.661,389.651,830.135,380.131,825.986z M422.442,856.448l-13.374,15.172l3.007-13.777L422.442,856.448z
			 M409.593,855.15l-9.301,1.251l12.246-14.745L409.593,855.15z M418.093,830.273l3.392-15.542l11.038-1.833L418.093,830.273z
			 M436.554,792.712l-1.23,1.552l1.108-2.607L436.554,792.712z M435.929,787.251l-4.573,5.165l-0.326-3.236l0.366-0.842l4.138-4.53
			L435.929,787.251z M437.021,779.213l-0.324-2.829l0.092-0.1l3.668-0.835L437.021,779.213z M433.901,754.786l1.823-12.317
			l6.253,10.481L433.901,754.786z M437.146,732.862l0.022-0.148l0.104-0.028L437.146,732.862z M447.346,718.622l-6.399,8.935
			l-3.14,0.844l1.094-7.39L447.346,718.622z M429.54,720.541l8.136-11.744l-1.459,9.855L429.54,720.541z M451.235,683.955
			l-8.71,12.574l1.596-10.779L451.235,683.955z M441.446,683.332l-6.701,1.691l8.07-10.941L441.446,683.332z M455.695,651.57
			l-8.15,11.047l1.357-9.168L455.695,651.57z M444.858,660.285l-3.295-4.805l4.177-1.156L444.858,660.285z M438.504,656.326
			l5.707,8.322l-0.461,3.111l-9.883,13.396l3.819-24.604L438.504,656.326z M433.84,661.775l-4.097-7.117l5.805-3.892L433.84,661.775
			z M436.174,646.736l-5.645,3.784l1.637-5.861l-2.89-0.807l-1.879,6.729l-4.071-7.073l-2.6,1.496l5.021,8.723l-13.413,8.99
			l10.197-27.549l16.451-6.52L436.174,646.736z M460.93,616.724l-18.179,7.204l1.622-10.454l16.757-7.513L460.93,616.724z
			 M460.655,602.887l-3.564,1.598l2.155-4.526L460.655,602.887z M459.232,593.008l-1.149-2.388l2.897-1.286L459.232,593.008z
			 M458.725,562.199l-0.264,0.122l0.141-0.31L458.725,562.199z M458.11,555.826l-4.674-7.073l10.18-5.078L458.11,555.826z
			 M465.958,539.154l-11.184,5.579l6.022-13.009L465.958,539.154z M455.54,518.898l10.469-5.573l-5.735,12.389L455.54,518.898z
			 M454.872,511.81l0.937-19.326l4.419,6.246L454.872,511.81z M461.576,495.44l-4.25-6.007l8.553-4.501L461.576,495.44z
			 M468.806,480.002l-0.514,0.27l-0.433-0.177l-0.212,0.516l-9.531,5.015l5.558-13.218L468.806,480.002z M463.058,466.137
			l-3.798-5.62l8.359-5.227L463.058,466.137z M469.897,450.328l-10.765,6.732l5.694-13.148L469.897,450.328z M460.008,432.978
			l8.336-4.743l-4.277,9.878L460.008,432.978z M469.701,424.011l-9.201,5.236l4.882-11.596L469.701,424.011z M461.117,406.027
			l8.484-6.129l-4.84,11.497L461.117,406.027z M470.008,395.901l-7.99,5.773l4.541-10.914L470.008,395.901z M462.496,379.315
			l7.854-5.473l-4.412,10.604L462.496,379.315z M471.601,369.314l-7.193,5.013l3.814-9.705L471.601,369.314z M464.284,354.021
			l6.662-4.537l-3.505,8.92L464.284,354.021z M471.799,345.273l-5.881,4.005l2.885-8.149L471.799,345.273z M464.822,330.501
			c0.015-0.288,0.03-0.575,0.044-0.863l6.453-4.604l-3.435,9.703L464.822,330.501z M472.171,320.74l-5.265,3.756l2.648-7.089
			L472.171,320.74z M465.933,307.936c0.003-0.064,0.006-0.129,0.009-0.193l5.632-4.313l-2.959,7.921L465.933,307.936z
			 M472.619,298.851l-4.142,3.171l2.151-5.569L472.619,298.851z M469.67,290.604l-2.799-3.371c0.002-0.046,0.004-0.092,0.007-0.139
			l5.922-4.595L469.67,290.604z M473.436,278.208l-4.322,3.354l2.244-5.731L473.436,278.208z M470.366,270.139l-2.118-2.422
			l4.481-3.613L470.366,270.139z M474.042,259.192l-4.04,3.257l1.936-5.622L474.042,259.192z M470.771,251.005l-1.547-1.738
			l3.007-2.503L470.771,251.005z M474.295,241.143l-3.852,3.206l1.968-5.068L474.295,241.143z M471.268,233.934l-1.027-1.015
			l2.23-2.084L471.268,233.934z M474.03,225.273l-2.257,2.108l1.067-3.401L474.03,225.273z M471.531,218.127l-1.068-1.161
			l1.951-1.654L471.531,218.127z M474.688,209.453l-2.207,1.871l1.067-3.054L474.688,209.453z M472.325,202.676l-0.338-0.35
			l0.656-0.561L472.325,202.676z M470.35,194.644c0.041-1.303,0.079-2.515,0.114-3.638l0.897,0.81L470.35,194.644z M472.455,188.761
			l-0.623-0.563l1.195-1.035L472.455,188.761z M467.559,187.93l-3.963,3.433c0.013-0.854,0.021-1.654,0.024-2.398
			c1.334-1.031,2.668-2.063,4.001-3.093C467.603,186.494,467.582,187.183,467.559,187.93z M475.342,176.145
			c-2.364,1.827-10.925,8.444-12.585,9.727c-0.81-1.969-1.62-3.937-2.43-5.906l13.243-9.111
			C474.161,172.618,474.751,174.381,475.342,176.145z"/>
		<polygon style="fill:#FFFFFF;stroke:#231F20;stroke-miterlimit:10;" points="566.58,632.774 461.423,617.75 462.674,603.625 
			562.246,619.333 		"/>
		<polygon style="fill:#FFFFFF;stroke:#231F20;stroke-miterlimit:10;" points="556.021,601.75 464.077,586.691 465.532,567.667 
			563.869,585.604 		"/>
		<g>
			<path style="fill:#58595B;" d="M476.195,872.887c0,0,16.478,28.113,19.801,72.114h64.643c0,0-27.158-74.768,9.645-99.189
				C590.041,832.7,652.766,902,669.518,946.501c12.633,0,45.176,0.5,45.176,0.5S637.158,819,553.315,818.32
				C492.229,817.656,476.195,872.887,476.195,872.887z"/>
		</g>
		<g>
			<polygon style="fill:#58595B;" points="497.568,656 399.431,642.709 462.411,617.75 566.58,632.774 			"/>
		</g>
		<g>
			<polygon style="fill:#FFFFFF;stroke:#231F20;stroke-miterlimit:10;" points="501.99,183.266 477.097,176.668 481.575,158.886 
				509.324,166.034 			"/>
		</g>
		<g>
			<path style="fill:#58595B;" d="M481.575,136.871c-19.807,0-24.344,16.224-26.476,27.374l16.043-13.266h10.433l27.75,7.907
				C506.945,149.926,497.568,136.871,481.575,136.871z"/>
		</g>
		<path style="fill:#58595B;" d="M603.467,764.998l-0.08-0.007v-0.143C603.412,764.898,603.44,764.948,603.467,764.998z"/>
		<path style="fill:#58595B;" d="M601.248,751.402l0.139,0.094v0.207C601.34,751.604,601.293,751.502,601.248,751.402z"/>
		<polygon style="fill:#58595B;" points="468.844,734.494 468.844,734.484 468.849,734.49 		"/>
		<polygon style="fill:#58595B;" points="600.432,790.597 600.496,790.481 600.555,790.56 		"/>
		<path style="fill:#58595B;" d="M757.338,943.768c-46.643-59.521-83.619-108.982-113.318-155.521l2.066-15.569l0.092,0.008
			l0.342-3.984l-3.197-0.275v-17.091l0.125,0.013l0.412-3.978l-25.951-2.691c-1.943-3.486-3.854-6.97-5.723-10.452l0.121-0.15
			l-0.357-0.29c-6.674-12.455-12.865-24.904-18.631-37.493l0.135-0.161l-0.336-0.28c-5.322-11.643-10.281-23.408-14.908-35.413
			l0.127-0.148l-0.275-0.237c-3.144-8.176-6.137-16.465-8.99-24.9l-5.711-17.667c-1.73-5.611-3.398-11.305-5.02-17.071l7.209-14.832
			l0.139-1.169v-6.002l-13.877-2.74c-1.691-6.858-3.32-13.846-4.892-20.972l0.064-0.056l-0.105-0.124
			c-2.19-9.924-4.27-20.125-6.256-30.636l0.027-0.021l-0.041-0.052c-16.176-85.661-26.021-192.134-36.752-341.124
			c2.252-5.29,4.504-10.581,6.754-15.871c0.131-0.211,0.215-0.467,0.215-0.779v-7.125c0.004-0.138-0.012-0.279-0.053-0.421
			c-3.047-10.626-11.144-18.861-21.375-21.875v-10.889c0-2.812-1.98-5.23-4.795-6.259v-61.2c0-1.694-1.357-3.073-3.026-3.073
			c-1.669,0-3.027,1.378-3.027,3.073v61.2c-2.814,1.029-4.794,3.447-4.794,6.259v10.81c-11.848,3.489-17.589,14.419-20.101,27.313
			l-0.059,7.133l18.231-13.313l5.667,18.167l-2.15,4.072c0,186.295-5.369,314.583-14.371,421.426l-0.099-0.016l-1.608,18.146
			l0.116,0.017c-3.589,39.383-7.729,74.805-12.349,107.478l-5.553-0.576l-0.216,2.086h-0.053v0.509l-0.144,1.384l0.144,0.015v21.383
			l-0.282,3.28l0.171,0.015v10.852c-10.774,65.934-23.648,121.443-37.94,178.612l-0.677,2.485h60.969l0.287-1.664l10.46-61.298
			c8.729-31.849,27.746-53.775,53.97-61.367c21.103-6.11,45.896-2.617,71.693,10.106c26.904,13.268,53.881,35.724,80.271,66.797
			l34.018,46.604l0.545,0.821h45.479L757.338,943.768z M747.793,938.053l-18.764-10.908l10.033-0.313
			C741.934,930.534,744.844,934.275,747.793,938.053z M725.506,909.248c3.453,4.506,6.957,9.06,10.529,13.676l-13.502,0.421
			l-0.047-0.063L725.506,909.248z M710.119,906.601h11.865l-2.67,12.403L710.119,906.601z M713.81,918.297l-20.117-11.696h11.447
			L713.81,918.297z M707.154,902.601l-7.496-10.113l17.387,10.113H707.154z M716.801,897.832l-16.975-9.874l9.545,0.038
			C711.816,891.248,714.293,894.525,716.801,897.832z M697.359,871.879c2.951,3.997,5.949,8.029,9.002,12.105l-12.322-0.05
			L697.359,871.879z M656.637,841.172l-24.09-14.435l14.258,1.142l-0.014,0.01L656.637,841.172z M637.471,834.352l19.596,11.74
			l-11.186-0.221L637.471,834.352z M639.197,843.5c-2.459-1.973-4.967-3.879-7.525-5.705l0.617-3.76L639.197,843.5z
			 M658.912,850.131l-2.967,9.531l-7.102-9.729L658.912,850.131z M663.076,850.214l0.268,0.005l10.644,14.358l-14.85-0.541
			l-0.254-0.35L663.076,850.214z M671.816,854.931l17.002,10.186l-9.713-0.354L671.816,854.931z M677.039,868.691l7.834,10.569
			l-18.861-10.971L677.039,868.691z M682.156,868.878l11.764,0.429l-3.1,11.258L682.156,868.878z M689.105,860.626l-17.082-10.235
			l9.824,0.193C684.232,853.907,686.65,857.254,689.105,860.626z M678.943,846.525l-13.557-0.268l-0.762-1.027l4.105-13.196
			C672.06,836.818,675.465,841.646,678.943,846.525z M661.674,841.25l-9.6-12.949l13.297,1.064L661.674,841.25z M664.035,825.246
			l-35.271-2.823l-5.523-7.567l35.52,2.651C660.496,820.075,662.254,822.654,664.035,825.246z M562.662,795.555l1.826-2.834
			l5.385,4.779l-1.785,2.799L562.662,795.555z M566.457,802.857l-1.517,2.381l-1.471-4.994L566.457,802.857z M551.902,795.392
			l2.18-3.354l4.654,4.069l-2.262,3.51L551.902,795.392z M554.826,802.177l-1.34,2.078l-1.191-4.417L554.826,802.177z
			 M540.396,794.56l2.371-3.521l5.24,4.839l-2.178,3.349L540.396,794.56z M544.18,801.764l-1.537,2.364l-1.33-4.826L544.18,801.764z
			 M470.861,788.57l2.505-3.333l5.748,4.776l-2.581,3.516L470.861,788.57z M474.751,795.956l-1.839,2.504l-1.378-5.316
			L474.751,795.956z M463.622,793.207l-5.061-4.423l3.076-4.294l5.151,4.504L463.622,793.207z M465.798,799.094l-2.697-0.201
			l0.978-1.301L465.798,799.094z M461.813,795.612l-1.218,1.621l-0.826-3.408L461.813,795.612z M446.283,786.552l2.112-2.666
			l6.142,5.366l-1.771,2.473L446.283,786.552z M451.016,794.167l-2.296,3.205l-1.479-6.218L451.016,794.167z M443.95,776.016
			l6.418,0.547l-2.37,2.991L443.95,776.016z M446.133,781.909l-0.84,1.061l-0.539-2.267L446.133,781.909z M452.895,778.204
			l1.731,7.142l-4.366-3.815L452.895,778.204z M453.364,796.04l2.939,2.345l-4.384-0.327L453.364,796.04z M455.113,793.598
			l1.131-1.578l0.745,3.075L455.113,793.598z M456.395,779.907l2.973,2.6l-1.75,2.443L456.395,779.907z M457.855,777.199l5.01,0.426
			l-1.742,2.432L457.855,777.199z M463.392,782.04l1.591-2.221l1.21,4.67L463.392,782.04z M468.176,792.142l1.69,6.523l-3.98-3.478
			L468.176,792.142z M469.518,785.362l-1.098-4.235l2.636,2.189L469.518,785.362z M469.589,778.197l4.995,0.426l-1.725,2.293
			L469.589,778.197z M475.17,782.836l1.732-2.303l1.264,4.792L475.17,782.836z M477.018,797.938l2.493,2.18l-3.881-0.289
			L477.018,797.938z M478.799,795.511l1.511-2.057l1.158,4.39L478.799,795.511z M480.144,781.067l3.312,3.032l-1.848,2.518
			L480.144,781.067z M482.668,779.31l4.052,0.345l-1.478,2.012L482.668,779.31z M485.682,786.137l1.004,0.919l-0.8,4.686
			l-2.683-2.229L485.682,786.137z M485.304,795.158l-0.566,3.319l-1.281-4.854L485.304,795.158z M487.354,829.301
			c-1.642,1.615-3.211,3.307-4.688,5.094l1.576-9.237L487.354,829.301z M484.937,821.086l1.038-6.079l7.361,9.071
			c-1.301,1.007-2.564,2.058-3.785,3.154L484.937,821.086z M486.646,811.072l1.08-6.331l0.103,0.008l11.71,15.058
			c-1.294,0.791-2.558,1.617-3.787,2.484L486.646,811.072z M501.9,791.574l-2.809,3.77l-5.227-4.802l2.869-3.875L501.9,791.574z
			 M498.533,784.237l1.055-1.425l0.99,3.366L498.533,784.237z M513.307,793.692l-1.883,2.788l-5.525-5.248l1.855-2.491
			L513.307,793.692z M509.555,786.328l1.852-2.486l1.52,5.493L509.555,786.328z M513.574,802.66l-2.572-0.192l0.926-1.371
			L513.574,802.66z M509.723,799.002l-1.565,2.317l-1.551-5.276L509.723,799.002z M507.305,784.323l-3.615-3.224l5.66,0.482
			L507.305,784.323z M505.506,786.736l-1.174,1.575l-1.045-3.554L505.506,786.736z M504.822,800.611l-3.51-3.226l1.836-2.465
			L504.822,800.611z M501.65,801.769l-3.415-0.255l1.275-1.711L501.65,801.769z M497.29,797.762l-1.613,2.164l-1.347-4.883
			L497.29,797.762z M496.342,782.156l-1.945-1.848l3.116,0.265L496.342,782.156z M494.542,784.586l-2.257,3.048l-1.013-3.675
			l0.364-2.134L494.542,784.586z M492.893,801.116l-4.491-0.335l1.65-9.67l0.108,0.1L492.893,801.116z M491.865,805.05l5.815,0.435
			l7.533,11.175c-1.041,0.514-2.057,1.059-3.065,1.616L491.865,805.05z M501.492,805.769l4.908,0.366l0.029,0.027l0.022-0.023
			l2.49,0.186l4.727,6.805c-1.947,0.686-3.848,1.435-5.695,2.253L501.492,805.769z M512.795,806.612l6.512,0.486l1.606,3.831
			c-1.451,0.367-2.881,0.766-4.285,1.199L512.795,806.612z M517.426,787.587l-1.326,1.967l-1.137-4.106L517.426,787.587z
			 M515.707,782.122l5.115,0.435l-1.705,2.525L515.707,782.122z M516.144,800.964l-2.516-2.39l1.316-1.948L516.144,800.964z
			 M518.535,798.354l1.969,1.756l-1.066,1.504L518.535,798.354z M517.258,793.198l2.451-3.63l5.121,4.445l-2.58,3.636
			L517.258,793.198z M521.398,787.063l1.406-2.082l1.223,4.364L521.398,787.063z M528.738,788.503l-1.313,1.851l-1.098-3.921
			L528.738,788.503z M527.035,783.086l5.23,0.445l-1.783,2.515L527.035,783.086z M527.725,802.531l-3.221-2.873l1.732-2.44
			L527.725,802.531z M522.758,802.12l1.5,1.337l-2.326-0.173L522.758,802.12z M529.016,807.823l0.227,1.414
			c-1.822,0.285-3.602,0.633-5.359,1.014l-1.217-2.902L529.016,807.823z M528.852,793.531l2.174-3.065l5.393,4.631l-2.127,3.157
			L528.852,793.531z M532.768,788.01l1.672-2.357l1.369,4.968L532.768,788.01z M532.604,800.762l-1.594,2.367l-1.391-4.958
			L532.604,800.762z M536.488,808.381c-0.822,0.068-1.644,0.132-2.459,0.22c-0.613,0.065-1.207,0.16-1.813,0.236l-0.125-0.784
			L536.488,808.381z M533.92,804.179l0.965-1.435l1.9,1.649L533.92,804.179z M536.574,800.236l1.338-1.986l1.139,4.137
			L536.574,800.236z M537.762,786.415l2.777,2.565l-1.469,2.181L537.762,786.415z M539.748,784.167l3.813,0.325l-1.328,1.97
			L539.748,784.167z M544.463,788.521l1.189-1.766l1.031,3.816L544.463,788.521z M546.477,803.736l1.76,1.511l-2.615-0.195
			L546.477,803.736z M548.127,801.198l1.008-1.551l0.85,3.147L548.127,801.198z M548.982,787.579l2.818,2.464l-1.521,2.339
			L548.982,787.579z M550.703,785.1l4.086,0.348l-1.336,2.056L550.703,785.1z M555.734,789.498l0.992-1.525l0.949,3.223
			L555.734,789.498z M557.063,804.243l1.961,1.809l-2.982-0.223L557.063,804.243z M558.713,801.684l1.408-2.187l1.412,4.791
			L558.713,801.684z M561.146,792.367l-1.041-3.537l2.111,1.875L561.146,792.367z M561.453,786.014l3.59,0.306l-1.18,1.834
			L561.453,786.014z M566.133,790.168l1.359-2.111l1.459,4.612L566.133,790.168z M568.742,804.854l2.404,2.102l-3.574-0.267
			L568.742,804.854z M570.373,802.296l1.082-1.698l1.156,3.656L570.373,802.296z M573.605,791.644l-1.225,1.921l-1.332-4.217
			L573.605,791.644z M572.91,786.989l3.475,0.296l-1.145,1.795L572.91,786.989z M578.047,811.482l-0.182,0.887
			c-1.805-0.47-3.609-0.908-5.412-1.304L578.047,811.482z M575.088,802.129l2.58,2.291l-1.203,2.066L575.088,802.129z
			 M573.777,796.954l2.09-3.277l5.293,4.752l-1.951,3.347L573.777,796.954z M577.502,791.112l1.057-1.656l1.121,3.612
			L577.502,791.112z M579.957,806.451l1.432,1.271l-2.082-0.155L579.957,806.451z M581.063,811.708l4.975,0.371v2.664
			c-1.754-0.564-3.512-1.094-5.27-1.59L581.063,811.708z M592,799.328l-1.81,3.177l-5.207-4.676l1.801-3.09L592,799.328z
			 M588.322,792.099l1.104-1.894l1.152,3.878L588.322,792.099z M592.426,808.546l-2.137-0.16l0.664-1.163L592.426,808.546z
			 M586.027,790.08l-2.486-2.186l3.582,0.305L586.027,790.08z M584.488,792.721l-1.156,1.984l-1.285-4.131L584.488,792.721z
			 M582.49,802.106l1.107,3.564l-2.1-1.863L582.49,802.106z M585.777,802.575l2.893,2.597l-1.35,2.367L585.777,802.575z
			 M589.037,815.581v-3.278l6.768,0.506l-0.219,5.344c-2.33-0.918-4.67-1.772-7.018-2.571H589.037z M593.271,803.157l0.856,2.883
			l-1.654-1.484L593.271,803.157z M593.094,792.015l2.064,1.775l-1.012,1.774L593.094,792.015z M593.93,788.777l3.896,0.332
			l-1.154,2.024L593.93,788.777z M597.477,795.779l5.131,4.407l-1.771,2.918l-5.019-4.413L597.477,795.779z M598.99,793.125
			l1.201-2.109l1.287,4.248L598.99,793.125z M603.412,809.365l-2.742-0.204l0.873-1.44L603.412,809.365z M599.256,805.709
			l-1.408,2.32l-1.43-4.816L599.256,805.709z M598.799,813.031l4.813,0.359v8.178c-1.684-0.77-3.373-1.515-5.07-2.223
			L598.799,813.031z M603.123,805.117l0.895-1.475l0.934,3.083L603.123,805.117z M604.885,789.71l3.91,0.333l-1.473,2.189
			l-1.244-1.048l-0.063,0.074L604.885,789.71z M609.832,806.394l-1.225,2.05l-1.271-4.194L609.832,806.394z M609.629,794.176
			l1.24-1.842l1.865,4.456L609.629,794.176z M606.781,799.09l1.424,1.951l-1.715-1.473L606.781,799.09z M606.611,813.615
			l6.977,0.521l-1.363,11.673c-1.859-0.982-3.729-1.936-5.613-2.842V813.615z M611.205,809.947l0.938-1.568l2.088,1.794
			L611.205,809.947z M442.073,783.192c0.026-0.153,0.054-0.305,0.08-0.458l0.153,0.644L442.073,783.192z M442.075,787.032
			l-0.866,1.093c0.091-0.521,0.183-1.043,0.274-1.565L442.075,787.032z M643.359,798.678l-2.092-1.814l0.816-1.477L643.359,798.678z
			 M636.57,799.162l-1.369-3.593l2.266,1.968L636.57,799.162z M637.441,809.864l-2.25-2l0.879-1.592L637.441,809.864z
			 M636.084,792.364l4.051,0.345l-1.184,2.143L636.084,792.364z M627.734,801.235l1.666-3.017l5.164,4.573l-1.672,3.028
			L627.734,801.235z M631.404,808.513l-0.56,1.016l-0.877-2.294L631.404,808.513z M625.801,804.74l1.721,4.501l-2.871-2.417
			L625.801,804.74z M625.047,794.365l2.051,1.816l-0.801,1.451L625.047,794.365z M626.379,791.539l3.133,0.267l-0.93,1.684
			L626.379,791.539z M630.885,795.527l0.645-1.167l1,2.623L630.885,795.527z M633.705,810.557l1.313,1.168l-1.881-0.141
			L633.705,810.557z M622.773,796.824l-2.435-2.166l0.98-1.641L622.773,796.824z M619.078,790.917l-1.023,1.712l-2.236-1.989
			L619.078,790.917z M616.488,795.251l-0.674,1.128l-1.15-2.75L616.488,795.251z M615.344,803.021l0.996,2.383l-1.33-1.824
			L615.344,803.021z M616.582,814.359l1.422,0.105l3.465,4.746l-1.154,11.15c-1.734-1.04-3.484-2.045-5.246-3.019L616.582,814.359z
			 M620.293,807.076l0.541,0.455l-0.199,0.361L620.293,807.076z M617.758,801.019l-0.502-1.2l1.516-2.538l5.178,4.604l-1.639,2.969
			L617.758,801.019z M623.174,809.501l1.744,1.47l-2.455-0.184L623.174,809.501z M629.807,830.634l-0.863,5.263
			c-1.908-1.307-3.842-2.568-5.793-3.791l0.959-9.275L629.807,830.634z M639.682,807.322l2.082,1.844l-0.822,1.461L639.682,807.322z
			 M654.24,812.093l0.783,0.68l0.309-0.356c0.195,0.289,0.387,0.578,0.582,0.867l-2.307-0.172L654.24,812.093z M651.945,810.102
			l-0.578,0.934l-0.84-2.165L651.945,810.102z M648.867,802.653c0.406,0.621,0.81,1.241,1.221,1.863l-1.525-1.323L648.867,802.653z
			 M646.519,806.829l1.498,3.867l-2.451-2.171L646.519,806.829z M643.414,812.352l0.648-1.151l1.479,1.31L643.414,812.352z
			 M643.268,806.49l-4.914-4.351l1.432-2.592l4.963,4.308L643.268,806.49z M450.316,751.831l3.654-2.468v2.781L450.316,751.831z
			 M470.949,719.418l-0.51,9.966l-0.977-0.101l-10.229-10.974L470.949,719.418z M457.767,714.153l13.975-10.256l-0.589,11.521
			L457.767,714.153z M469.969,738.56l-0.762,14.896l-0.363-0.031v-14.105L469.969,738.56z M466.844,740.67v12.582l-10.874-0.936
			v-4.304L466.844,740.67z M455.97,743.188v-11.282l10.874,1.128v2.812L455.97,743.188z M475.803,702.782l13.532,14.356
			l-14.197-1.343L475.803,702.782z M475.667,627.125l-5.508-6.106l5.777,0.825L475.667,627.125z M479.068,739.587v-5.286
			l11.591,1.201v16.518L479.068,739.587z M488.038,755.074l-8.97-0.772v-8.851L488.038,755.074z M481.812,730.563l10.934-7.383
			l-0.075,8.509L481.812,730.563z M479.553,629.452l0.359-7.04l7.537,1.077L479.553,629.452z M493.03,624.286l0.583,0.083
			l-0.197,22.436l-12.237-13.569L493.03,624.286z M487.843,646.599l-9.132-0.685l0.456-8.933L487.843,646.599z M491.225,650.863
			l-13.291,10.251l0.573-11.205L491.225,650.863z M493.35,654.276l-0.222,25.288l-13.46-14.736L493.35,654.276z M489.759,681.807
			l-12.804-1.553l0.603-11.806L489.759,681.807z M493.052,688.26l-0.235,26.742l-14.803-15.707L493.052,688.26z M489.618,685.818
			l-13.451,9.871l0.584-11.432L489.618,685.818z M488.687,721.096l-13.07,8.825l-1.194-0.124l0.511-10.002L488.687,721.096z
			 M477.068,734.093v3.349l-2.102-2.255l1.683-1.137L477.068,734.093z M474.722,645.614l-9.038-0.679l9.436-7.126L474.722,645.614z
			 M474.517,649.609l-0.463,9.071l-8.929-9.776L474.517,649.609z M477.068,743.307v10.824l-3.873-0.333l0.71-13.885L477.068,743.307
			z M472.975,679.771l-10.96-1.329l11.48-8.853L472.975,679.771z M472.771,683.775l-0.483,9.444l-10.112-10.73L472.771,683.775z
			 M483.544,598.76l-2.955,2.784l0.473-5.938L483.544,598.76z M482.738,591.268l7.461,1.222l-3.731,3.517L482.738,591.268z
			 M486.029,601.917l3.026,3.845l-6.088-0.961L486.029,601.917z M488.952,599.162l4.923-4.639l-0.095,10.775L488.952,599.162z
			 M506.799,602.005l3.674-3.332l0.762,8.261L506.799,602.005z M507.404,608.656l-6.763-1.067l3.195-2.898L507.404,608.656z
			 M504.123,599.031l-4.496-4.998l8.477,1.389L504.123,599.031z M501.16,601.718l-3.375,3.062l0.059-6.747L501.16,601.718z
			 M511.652,613.377l1.217,0.191l2.16,0.341l0.35,0.056l15.715,2.479c0.877,3.03,1.818,6.258,2.814,9.642l-36.265-5.182l0.086-9.725
			L511.652,613.377z M524.394,604.241l2.432-2.622c0.449,1.556,0.93,3.226,1.447,5.027c0.145,0.508,0.301,1.05,0.451,1.574
			L524.394,604.241z M526.58,611.682l-7.924-1.25l3.019-3.257L526.58,611.682z M521.451,601.535l-5.201-4.778l8.361,1.369
			L521.451,601.535z M518.73,604.469l-3.371,3.636l-0.678-7.357L518.73,604.469z M551.391,606.418l-4.56-4.653l6.402,1.049
			L551.391,606.418z M555.404,616.229l-4.195-0.662l1.215-2.378L555.404,616.229z M549.471,610.175l-2.154,4.217l-6.744-6.744
			l2.42-4.085L549.471,610.175z M541.268,613.999l-4.074-0.643l1.275-2.155L541.268,613.999z M537.654,604.729l-5.342-5.342
			l7.752,1.27L537.654,604.729z M535.551,608.281l-1.781,3.009c-0.58-2.011-1.135-3.941-1.652-5.747
			c-0.096-0.335-0.188-0.649-0.281-0.976L535.551,608.281z M535.154,630.305c2.508,8.454,5.352,17.809,8.514,27.768l-11.18-6.244
			l3.27-8.682l-4.895,1.647l-1.008,2.676l-0.687-2.106l-3.789,1.275l0.484,1.486l-1.842-1.03l-0.047,0.017
			c-0.037,0.027-0.076,0.055-0.127,0.071c-0.018,0.005-0.035,0.011-0.053,0.017c-0.002,0.001-0.004,0-0.006,0.001
			c-0.043,0.028-0.09,0.055-0.15,0.069c-0.023,0.005-0.045,0.011-0.068,0.017c-0.045,0.011-0.084,0.003-0.125,0.003l-3.139,1.057
			c-0.002,0-0.004,0.001-0.006,0.002c-0.002,0.001-0.004,0.001-0.004,0.001l-0.547,0.185c-0.018,0.007-0.035,0.014-0.055,0.021
			c-0.008,0.003-0.014,0.003-0.022,0.004l-0.023,0.008c-0.014,0.008-0.025,0.017-0.041,0.022c-0.102,0.028-0.203,0.063-0.303,0.094
			l-0.406,0.137l8.631,4.82l-4.117,10.934l-4.605-15.724l-1.953,0.657c-0.406,0.143-0.812,0.288-1.225,0.42
			c-0.01,0.003-0.018-0.001-0.029,0.002l-0.588,0.198l0.244,0.832l-7.762,8.503l-0.674-6.578l-2.914,0.981l0.656,6.434l-7.199-7.78
			l0.242-27.579L535.154,630.305z M554.234,644.777l-7.617,9.36c-2.41-7.649-4.629-14.92-6.646-21.666L554.234,644.777z
			 M545.258,631.748l5.613,0.802c0.469,1.34,1.164,3.315,2.047,5.808L545.258,631.748z M556.484,648.352
			c1.072,2.988,2.254,6.266,3.531,9.784l-10.65-1.037L556.484,648.352z M555.338,633.188l7.459,1.065l-4.93,6.06
			C556.834,637.419,555.979,635.003,555.338,633.188z M596.85,751.437c1.572,3.435,3.09,6.624,4.537,9.52v3.863l-10.346-0.89v-3.198
			L596.85,751.437z M591.041,753.183v-7.271l2.543,0.264l1.287,0.878L591.041,753.183z M597.67,742.578l-0.4-0.041
			c-1.476-3.376-2.988-6.921-4.519-10.585l11.059,0.803L597.67,742.578z M591.035,727.816c-1.168-2.831-2.342-5.72-3.52-8.648
			l11.4,9.221L591.035,727.816z M588.256,731.626c1.215,2.92,2.418,5.771,3.605,8.533l-13.572-9.257L588.256,731.626z
			 M562.383,746.796l1.84-3.665l3.594,0.373v6.685L562.383,746.796z M567.816,754.904v7.029l-0.627-0.055l-3.02-9.251
			L567.816,754.904z M531.207,735.685l-6.225-51.525l15.371,52.475L531.207,735.685z M535.174,740.118v19.009l-1.146-0.099
			l-1.06-8.784l-0.231-1.907l-1.037-8.579L535.174,740.118z M523.256,738.883l2.447,0.254v2.186L523.256,738.883z M525.703,745.562
			v12.751l-8.18-0.703l-1.996-19.528l2.984,0.31L525.703,745.562z M518.756,734.394l-3.613-3.601l11.121-11.011l1.883,15.587
			L518.756,734.394z M514.424,727.281l-1.109-10.861l11.449,0.626L514.424,727.281z M514.48,757.348l-0.133-0.012v-1.302
			L514.48,757.348z M508.516,737.354l3.832,0.398v19.412l-9.572-0.823v-13.304L508.516,737.354z M502.775,738.813v-2.055
			l1.879,0.195L502.775,738.813z M518.594,679.877l-9.129-1.129l-1.002-9.82L518.594,679.877z M507.955,663.964l-0.051-0.499
			l8.34-9.136l3.596,12.274l1.418,11.737L507.955,663.964z M519.396,682.999l-8.551,9.262l-1.066-10.452L519.396,682.999z
			 M522.012,684.588l3.285,27.19l-13.844-15.75L522.012,684.588z M511.385,727.045l-11.383-11.353l10.282,0.563L511.385,727.045z
			 M511.728,700.886l11.488,13.07l-10.211-0.558L511.728,700.886z M528.639,739.441l0.662,5.469l-1.598-1.593v-3.974
			L528.639,739.441z M527.703,747.556l2.18,2.174l1.092,9.036l-3.272-0.281V747.556z M532.219,667.604l2.406,7.374l-7.764-5.729
			L532.219,667.604z M527.588,664.841l1.998-5.303l1.391,4.264L527.588,664.841z M542.773,699.954l3.193,9.783l-11.51-7.465
			l-0.014-0.041L542.773,699.954z M534.758,698l3.951-10.502l2.824,8.65L534.758,698z M545.394,695.092l-3.09-9.473l10.199,7.528
			L545.394,695.092z M553.611,696.99l-3.842,11.509l-3.133-9.602L553.611,696.99z M547.447,715.463l-4.861,14.564l-6.406-21.87
			L547.447,715.463z M549.729,721.264l2.912,8.928l-6.336,1.332L549.729,721.264z M552.221,713.793l5.09-15.252
			c2.912,8.108,5.99,16.325,9.217,24.529L552.221,713.793z M541.51,680.06l4.975-13.22c2.367,7.273,4.893,14.804,7.566,22.477
			L541.51,680.06z M538.979,675.428l-2.935-8.996l7.146-2.193L538.979,675.428z M534.801,662.628l-1.965-6.023l7.656,4.277
			L534.801,662.628z M536.699,681.482l-4.685,12.451l-5.947-20.299L536.699,681.482z M534.107,698.178l-0.787,0.216l-0.17-0.575
			L534.107,698.178z M537.174,740.326l4.395,0.456l5.68,19.383l-10.074-0.866V740.326z M545.867,741.227l0.051,0.005l1.836,1.146
			v5.288L545.867,741.227z M547.252,737.35l-2.322-1.45l8.959-1.884l1.359,4.163L547.252,737.35z M556.605,742.341l0.348,1.066
			l-1.977-1.235L556.605,742.341z M549.754,743.627l7.42,4.633l-5.84,11.632l-1.58-5.398V743.627z M557.701,756.122v4.941
			l-2.377-0.204L557.701,756.122z M556.578,729.363l-3.301-10.119l12.592,8.166L556.578,729.363z M565.553,731.565l-3.666,7.303
			l-2.283-0.236l-1.777-5.442L565.553,731.565z M559.701,752.138l0.063-0.122l3.098,9.491l-3.16-0.271V752.138z M566.141,739.309
			l3.83-7.629c1.143,2.805,2.307,5.601,3.484,8.388L566.141,739.309z M569.816,756.153l10.412,6.499V763l-10.412-0.894V756.153z
			 M569.816,751.438v-7.727l5.434,0.564c1.627,3.774,3.287,7.521,4.979,11.229v2.434L569.816,751.438z M579.818,744.748l0.41,0.043
			v0.901C580.09,745.378,579.955,745.063,579.818,744.748z M578,740.538c-0.992-2.322-1.969-4.654-2.935-6.992l11.566,7.888
			L578,740.538z M582.229,744.998l6.813,0.707v10.678l-2.293,3.668c-1.531-3.247-3.037-6.529-4.519-9.842V744.998z M572.867,726.498
			l8.662-11.45c1.674,4.217,3.354,8.382,5.019,12.443L572.867,726.498z M570.695,722.737c-3.262-8.256-6.371-16.531-9.316-24.704
			l17.377,14.052L570.695,722.737z M574.611,697.306c1.166,3.039,2.346,6.093,3.535,9.142l-12.023-9.724L574.611,697.306z
			 M574.426,685.477l10.203,8.506l-7.16-0.49C576.44,690.799,575.424,688.123,574.426,685.477z M560.707,692.346l-0.574-0.465
			l8.275-10.964c1.498,4.007,3.049,8.115,4.631,12.273L560.707,692.346z M557.898,688.202c-2.73-7.833-5.31-15.522-7.723-22.94
			l15.367,12.811L557.898,688.202z M565.357,672.71l-13.631-11.362l9.807,0.955C562.744,665.618,564.021,669.101,565.357,672.71z
			 M561.82,651.322l9.133,7.88l-6.502-0.634C563.527,656.035,562.648,653.61,561.82,651.322z M507.791,691.861l-10.16-11.556
			l9.093,1.125L507.791,691.861z M503.627,663.701l-6.421,7.032l0.121-13.839L503.627,663.701z M505.191,666.435l1.221,11.934
			l-9.263-1.146l0.018-1.997L505.191,666.435z M507.414,695.979l-10.53,11.408l0.203-23.155L507.414,695.979z M508.539,699.185
			l1.435,14.047l-13.135-0.718l0.006-0.661L508.539,699.185z M510.885,730.785l-2.555,2.528l-11.663-1.209l0.135-15.364
			L510.885,730.785z M500.775,736.552v4.242l-4.221,4.178l0.078-8.85L500.775,736.552z M500.775,745.017v11.152l-4.315-0.371
			l0.058-6.565L500.775,745.017z M610.178,757.492v8.083l-1.939-0.166c-1.504-2.703-3.133-5.892-4.852-9.467v-3.082L610.178,757.492
			z M603.387,748.019v-0.826l6.791,0.704v4.754L603.387,748.019z M612.178,765.747v-6.891l9.918,6.764v0.98L612.178,765.747z
			 M632.67,750.229l8.652,0.897v17.127l-8.652-0.743V750.229z M624.096,749.34l6.574,0.682v16.687
			c-2.236-3.726-4.428-7.44-6.574-11.146V749.34z M622.096,749.133v2.962c-0.6-1.05-1.193-2.099-1.787-3.147L622.096,749.133z
			 M622.096,759.402v1.376l-9.918-6.764v-5.911l3.695,0.384C617.906,752.12,619.98,755.758,622.096,759.402z M609.58,737.013
			c1.291,2.401,2.596,4.804,3.92,7.207l-11.4-1.182l5.014-8.021L609.58,737.013z M604.838,728.034l-20.348-16.455
			c-0.039-0.098-0.076-0.194-0.115-0.292l7.404-9.786C595.912,710.388,600.262,719.218,604.838,728.034z M582.66,706.925
			c-1.215-3.102-2.42-6.214-3.613-9.315l10.137,0.693L582.66,706.925z M586.832,690.611l-15.25-12.713
			c-0.1-0.266-0.197-0.528-0.297-0.793l6.33-8.386C580.557,676.085,583.627,683.375,586.832,690.611z M575.893,664.361l-6.262,8.296
			c-1.27-3.425-2.494-6.745-3.656-9.922l9.65,0.939C575.715,663.904,575.803,664.133,575.893,664.361z M572.367,655.138
			l-12.576-10.851l6.053-7.438C567.94,643.015,570.115,649.106,572.367,655.138z M563.67,630.338l-25.34-3.572l-0.465-1.396
			c-0.844-2.868-1.646-5.618-2.406-8.238l10.617,1.676l0.617,0.097l14.02,2.212C561.682,624.213,562.668,627.286,563.67,630.338z
			 M558.396,613.568l-4.053-4.137l1.799-3.521C556.883,608.479,557.635,611.032,558.396,613.568z M543.842,557.655
			c1.309,5.837,2.654,11.582,4.041,17.238l-4.684-0.925l-6.789-7.429l7.129-8.945L543.842,557.655z M509.129,558.221l-7.021-8.892
			l11.986,2.392L509.129,558.221z M511.531,567.717l-4.018-0.793l1.668-2.184L511.531,567.717z M481.474,554.846l-8.245-11.277
			l16.18,3.227L481.474,554.846z M481.61,561.809l-1.157-0.229l0.568-0.576L481.61,561.809z M516.928,517.046l6.293-8.641
			l9.271,11.638L516.928,517.046z M533.973,524.401l-5.861,8.109l-9.426-11.053L533.973,524.401z M510.791,508.634l-4.793-9.291
			l2.705-5.233L510.791,508.634z M508.768,466.475l6.752,8.715l-4.641,5.952L508.768,466.475z M503.748,494.984l-4.152-8.047
			l6.81,1.32l0.338,0.931L503.748,494.984z M499.418,453.976l0.903-5.773l1.52,6.244L499.418,453.976z M502.73,458.694l-1.275,4.143
			l-1.711-4.722L502.73,458.694z M499.499,469.186l-0.54,1.753l0.028-3.165L499.499,469.186z M501.762,475.432l3.059,8.443
			l-5.34-1.035L501.762,475.432z M503.717,469.082l0.945-3.068l1.354,9.415L503.717,469.082z M506.728,452.296l-2.252-15.663
			l7.211,9.536L506.728,452.296z M502.709,424.346l-2.388-16.602l7.996,10.025L502.709,424.346z M499.345,396.29l-0.613-17.43
			l7.462,10.442L499.345,396.29z M498.757,494.034l2.739,5.308l-2.833,5.48L498.757,494.034z M498.826,513.217l4.918-9.517
			l6.191,11.999l-11.349-2.186l0.003-0.42L498.826,513.217z M510.18,519.819l-4.488,6.856l-5.742-8.825L510.18,519.819z
			 M503.297,530.331l-4.924,7.521l0.131-14.89L503.297,530.331z M505.68,533.993l8.951,13.757l-15.883-3.169L505.68,533.993z
			 M508.074,530.337l4.787-7.313l2.709,18.834L508.074,530.337z M515.373,512.387l-2.43-16.88l7.691,9.654L515.373,512.387z
			 M523.078,501.806l-9.721-12.201l15.68,3.039l0.367,0.474L523.078,501.806z M512.637,485.391l5.41-6.937l7.277,9.396
			L512.637,485.391z M508.699,459.853l15.629,3.035l0.385,0.511l-6.656,8.537L508.699,459.853z M509.008,455.838l5.164-6.382
			l6.545,8.655L509.008,455.838z M505.623,431.518l15.477,3.018l-6.82,8.43L505.623,431.518z M505.367,427.393l5.488-6.438
			l7.092,8.891L505.367,427.393z M502.006,403.441l15.164,3.943l-6.211,7.285L502.006,403.441z M501.992,399.306l6.563-6.699
			l7.377,10.323L501.992,399.306z M503.256,378.314l11.307,2.448l-5.527,5.639L503.256,378.314z M499.796,373.472l-0.287-0.402
			l7.126-6.681l7.25,10.134L499.796,373.472z M502.191,353.3l9.809,2.578l-4.768,4.469L502.191,353.3z M498.928,348.307l5.884-5.704
			l6.359,8.921L498.928,348.307z M500.115,329.119l9.879,2.891l-4.623,4.482L500.115,329.119z M497.688,324.242l5.466-5.22
			l5.867,8.536L497.688,324.242z M499.841,307.144l7.854,2.011l-3.906,3.731L499.841,307.144z M497.674,302.459l4.548-4.217
			l4.67,6.578L497.674,302.459z M498.408,285.96l8.43,2.551l-3.992,3.7L498.408,285.96z M497.719,281.573l3.138-2.946l3.407,4.925
			L497.719,281.573z M498.153,267.689l6.373,2.007l-3.022,2.837L498.153,267.689z M496.259,262.898l3.351-2.978l3.693,5.196
			L496.259,262.898z M494.831,228.414l2.68-2.261l2.951,4.128L494.831,228.414z M501.662,234.891l-2.278,1.944l-2.561-3.547
			L501.662,234.891z M494.652,207.292l-1.906,1.583l-0.159-4.52L494.652,207.292z M492.224,194.055l-0.116-3.308l1.54,2.112
			L492.224,194.055z M496.01,196.098l2.033,2.788l-3.855-1.257L496.01,196.098z M495.439,188.525l2.566,0.672l-1.287,1.081
			L495.439,188.525z M494.524,212.599l2.436-2.023l2.476,3.521L494.524,212.599z M500.32,218.548l-2.075,1.752l-2.181-3.049
			L500.32,218.548z M495.177,222.888l-1.882,1.589l-0.156-4.44L495.177,222.888z M497.738,204.729l-1.583-2.251l3.084,1.005
			L497.738,204.729z M492.964,328.753l0.432,12.251l-5.382-7.523L492.964,328.753z M493.896,241.52l-0.202-5.735l2.638,3.655
			L493.896,241.52z M494.266,365.733l-5.449-7.626l5.01-4.856L494.266,365.733z M500.046,208.012l1.551-1.289
			c0.096,1.302,0.193,2.61,0.289,3.906L500.046,208.012z M499.081,193.518l1.459-1.226c0.087,1.202,0.174,2.388,0.262,3.585
			L499.081,193.518z M491.851,183.451l-0.047-1.333c2.718,0.72,5.436,1.441,8.155,2.162c0.032,0.441,0.063,0.88,0.096,1.321
			L491.851,183.451z M492.216,307.518l0.39,11.067l-4.905-6.882L492.216,307.518z M486.625,219.16l2.409-2.001l0.197,5.611
			L486.625,219.16z M489.586,232.84l0.226,6.394l-2.926-4.116L489.586,232.84z M486.596,204.008l1.919-1.612l0.159,4.518
			L486.596,204.008z M486.98,189.428l1.051-0.767l0.084,2.381L486.98,189.428z M480.729,180.537l-1.171-1.665
			c2.735,0.725,5.47,1.45,8.205,2.175l0.047,1.345L480.729,180.537z M486.261,214.262l-1.982,1.647l-2.083-2.886L486.261,214.262z
			 M485.131,185.825l-0.452,0.33l-0.387-0.55L485.131,185.825z M485.974,194.951l-4.538-1.48l2.312-1.687L485.974,194.951z
			 M486.102,199.2l-1.839,1.545l-1.999-2.796L486.102,199.2z M483.525,206.589l2.429,3.397l-4.75-1.448L483.525,206.589z
			 M483.541,221.722l2.799,3.877l-5.337-1.769L483.541,221.722z M486.793,229.963l-2.232,1.883l-2.439-3.432L486.793,229.963z
			 M483.82,237.706l2.975,4.185l-5.685-1.898L483.82,237.706z M488.036,246.523l-2.844,2.428l-3.037-4.391L488.036,246.523z
			 M490.189,249.944l0.231,6.565l-2.941-4.252L490.189,249.944z M484.421,254.867l3.806,5.501l-7.487-2.358L484.421,254.867z
			 M488.33,264.594l-3.122,2.774l-3.435-4.839L488.33,264.594z M490.816,267.735l0.278,7.924l-3.558-5.01L490.816,267.735z
			 M488.381,278.748l-7.429-2.248l3.576-3.178L488.381,278.748z M489.934,283.396l-3.9,3.662l-4.203-6.114L489.934,283.396z
			 M491.508,287.405l0.282,8.027l-3.464-5.039L491.508,287.405z M490.505,300.623l-10.273-2.63l5.144-4.83L490.505,300.623z
			 M489.574,304.514l-4.214,3.906l-4.346-6.098L489.574,304.514z M490.155,322.038l-10.34-3.025l4.928-4.567L490.155,322.038z
			 M489.915,326.135l-4.252,4.06l-4.798-6.708L489.915,326.135z M492.491,346.615l-14.296-3.756l6.896-6.587L492.491,346.615z
			 M491.05,350.373l-4.585,4.444l-4.97-6.955L491.05,350.373z M493.981,372.213l-16.115-3.49l8.047-7.8L493.981,372.213z
			 M490.915,375.641l-5.361,5.025l-5.174-7.307L490.915,375.641z M494.684,377.592l0.592,16.804l-7.388-10.434L494.684,377.592z
			 M494.514,259.098l-0.234-6.676l2.999,4.22L494.514,259.098z M497.158,249.567l5.875,1.961l-2.747,2.441L497.158,249.567z
			 M496.016,244.97l2.665-2.275l3.01,4.17L496.016,244.97z M500.579,223.564l2.14-1.807c0.135,1.801,0.271,3.582,0.406,5.369
			L500.579,223.564z M501.131,181.486c-3.146-0.833-6.292-1.667-9.437-2.501l-1.993-0.528c-3.535-0.937-7.07-1.874-10.604-2.811
			v-0.774c0.441-1.754,0.883-3.508,1.325-5.261l23.188,6.052C502.783,177.604,501.957,179.545,501.131,181.486z M481.447,188.512
			l-2.365,1.726c0.003-1.689,0.005-3.384,0.007-5.08L481.447,188.512z M481.191,203.326l-2.147,1.804
			c0.006-1.594,0.011-3.186,0.016-4.787L481.191,203.326z M481.195,218.471l-2.212,1.837c0.008-1.617,0.015-3.246,0.022-4.871
			L481.195,218.471z M481.494,234.435l-2.605,2.2c0.013-1.933,0.025-3.871,0.037-5.814L481.494,234.435z M482.134,251.56
			l-3.385,2.89c0.023-2.556,0.044-5.116,0.065-7.689L482.134,251.56z M482.2,270.041l-3.638,3.232
			c0.03-2.734,0.06-5.477,0.088-8.232L482.2,270.041z M483.083,289.828l-4.786,4.495c0.052-3.73,0.103-7.472,0.149-11.24
			L483.083,289.828z M482.402,311.161l-4.427,4.103c0.057-3.345,0.11-6.709,0.163-10.086L482.402,311.161z M482.742,332.986
			l-5.188,4.954c0.08-3.94,0.158-7.896,0.231-11.883L482.742,332.986z M483.562,357.632l-6.59,6.387
			c0.122-5.001,0.239-10.039,0.352-15.117L483.562,357.632z M482.609,383.428l-6.311,5.916c0.136-4.724,0.268-9.479,0.395-14.272
			L482.609,383.428z M484.943,386.723l7.072,9.989l-13.879-3.608L484.943,386.723z M494.127,401.394l-7.654,6.96l-7.617-10.93
			L494.127,401.394z M493.215,425.023l-15.751-3.071l8.331-7.576L493.215,425.023z M492.673,428.993l-8.085,7.469l-7.048-10.42
			L492.673,428.993z M490.426,452.23l-14.056-2.729l7.514-6.942L490.426,452.23z M493.373,456.877l-8.68,8.085l-8.055-11.335
			L493.373,456.877z M491.374,481.269l-15.164-2.939l7.867-7.329L491.374,481.269z M491.921,485.45l-8.615,8.239l-8.004-11.461
			L491.921,485.45z M491.293,512.11l-17.864-3.441l9.27-8.865L491.293,512.11z M490.25,515.982l-8.011,7.588l-8.206-10.71
			L490.25,515.982z M492.315,543.298l-20.722-4.134l10.172-9.635L492.315,543.298z M494.103,547.732l0.182,0.037l-0.145,16.514
			l-6.739-1.331l-3.535-4.835L494.103,547.732z M484.686,526.763l9.865-9.345l-0.192,21.97L484.686,526.763z M485.624,497.007
			l9.184-8.783l-0.19,21.66L485.624,497.007z M487.03,468.251l8.018-7.469l-0.162,18.524L487.03,468.251z M486.856,439.814
			l8.445-7.803l-0.176,20.028L486.856,439.814z M488.78,411.663l6.754-6.142l-0.137,15.637L488.78,411.663z M495.196,278.455
			l-0.297-8.441l3.656,5.287L495.196,278.455z M499.888,294.953l-3.982,3.69l-0.345-9.782L499.888,294.953z M500.859,315.684
			l-4.21,4.021l-0.377-10.692L500.859,315.684z M502.465,339.309l-4.956,4.805l-0.436-12.37L502.465,339.309z M504.287,363.107
			l-5.914,5.545l-0.512-14.53L504.287,363.107z M498.258,550.908l8.365,10.592l-3.482,4.56l-5.007-0.988L498.258,550.908z
			 M517.328,554.076l2.188,15.217l-1.945-0.384l-5.883-7.448L517.328,554.076z M517.336,526.039l8.365,9.809l-5.801,8.024
			L517.336,526.039z M528.371,538.981l11.828,13.87l-19.098-3.81L528.371,538.981z M524.824,553.861l14.301,2.853l-5.447,6.835
			L524.824,553.861z M531.152,566.718l-3.355,4.21l-4.121-0.813l-1.977-13.741L531.152,566.718z M533.885,569.708l2.701,2.955
			l-4.369-0.862L533.885,569.708z M541.861,548.636l-11.078-12.991l6.596-9.128C538.822,534.042,540.315,541.414,541.861,548.636z
			 M532.01,496.48c1.199,7.205,2.436,14.265,3.709,21.191l-10.055-12.621l6.291-8.64L532.01,496.48z M527.402,466.956
			c1.057,7.218,2.139,14.301,3.252,21.244l-10.07-13l6.627-8.497L527.402,466.956z M526.227,458.766l-9.463-12.513l6.652-8.22
			C524.33,445.072,525.268,451.981,526.227,458.766z M522.234,428.806l-8.734-10.952l6.482-7.604
			C520.721,416.532,521.469,422.722,522.234,428.806z M518.807,400.075l-7.408-10.369l5.631-5.747
			C517.615,389.403,518.207,394.775,518.807,400.075z M515.803,372.328l-6.223-8.699l4.873-4.568
			C514.898,363.531,515.348,367.953,515.803,372.328z M513.334,347.665l-5.615-7.879l4.455-4.319
			C512.559,339.573,512.945,343.638,513.334,347.665z M511.068,323.474l-4.984-7.25l3.99-3.811
			C510.404,316.134,510.736,319.814,511.068,323.474z M509.078,300.987l-3.897-5.487l3.176-2.943
			C508.596,295.385,508.836,298.194,509.078,300.987z M507.393,281.045l-3.588-5.186l2.934-2.755
			C506.957,275.766,507.174,278.414,507.393,281.045z M505.82,261.756l-3.203-4.508l2.658-2.361
			C505.457,257.186,505.639,259.478,505.82,261.756z M503.971,238.18c0.145,1.878,0.289,3.746,0.434,5.609l-2.67-3.7L503.971,238.18
			z M504.797,172.873l-23.643-6.171c0.502-1.996,1.005-3.991,1.507-5.987c8.204,2.113,16.408,4.227,24.613,6.34
			C506.447,168.994,505.623,170.934,504.797,172.873z M473.19,150.864l-5.615,1.127c0,0-6.689,5.531-10.034,8.297
			c2.535-9.586,7.221-17.597,16.213-20.624c0,0,3.342-1.257,7.739-1.257c4.397,0,7.903,1.342,7.903,1.342
			c8.009,2.635,14.446,8.862,17.581,16.908l-13.016-3.708c-3.684-1.05-6.463-1.973-10.421-2.391L473.19,150.864z M475.971,400.279
			l7.518,10.789l-8.111,7.376C475.583,412.445,475.782,406.393,475.971,400.279z M474.989,429.409l6.628,9.798l-7.262,6.71
			C474.574,440.462,474.786,434.962,474.989,429.409z M473.909,456.691l7.832,11.021l-8.686,8.091
			C473.35,469.501,473.635,463.131,473.909,456.691z M472.595,485.337l7.786,11.149l-8.8,8.417
			C471.931,498.453,472.27,491.933,472.595,485.337z M470.994,515.469l8.326,10.868l-9.521,9.017
			C470.211,528.803,470.61,522.177,470.994,515.469z M469.19,544.821l9.439,12.91l-2.878,2.92l-7.535-1.487
			C468.548,554.425,468.873,549.644,469.19,544.821z M467.051,575.175l0.358-5.741l93.858,17.145l-6.809,13.395l-88.211-14.446
			C466.52,582.095,466.789,578.651,467.051,575.175z M472.125,594.613l-3.986-5.736l8.525,1.396L472.125,594.613z M473.271,603.271
			l-3.788-0.598l2.026-1.938L473.271,603.271z M477.063,595.426l-0.45,5.645l-2.177-3.133L477.063,595.426z M465.701,592.377
			l3.498,5.034l-4.255,4.069C465.2,598.464,465.452,595.429,465.701,592.377z M464.426,607.51l0.155-1.584l11.499,1.839l0.98,0.155
			l15.634,2.466l1.042,0.189l-0.039,9.688l-1.747-0.171l-25.974-3.711l-2.265-0.369C463.905,613.848,464.236,609.69,464.426,607.51z
			 M463.304,620.039l0.671,0.096l11.31,12.54l-14.243,10.755C461.822,635.751,462.576,627.956,463.304,620.039z M459.961,653.842
			c0.148-1.388,0.293-2.784,0.439-4.181l13.367,14.636l-0.002,0.032l-16.385,12.636
			C458.265,669.388,459.127,661.691,459.961,653.842z M456.721,682.536l15.278,16.211l-18.409,13.509l-0.557-0.597
			C454.307,702.155,455.536,692.457,456.721,682.536z M452.137,718.284l0.779-0.572l0.322,0.031l10.172,10.912l-12.54-1.301
			C451.297,724.352,451.719,721.326,452.137,718.284z M450.3,731.317l3.669,0.38v12.84l-6.271,4.234
			C448.583,743.021,449.451,737.204,450.3,731.317z M443.208,730.582l3.258,0.338c-0.989,6.892-2.001,13.659-3.033,20.319
			l-0.226-0.02V730.582z M440.099,794.358l3.706-4.679l1.883,7.913l-6.09-0.454C439.766,796.213,439.933,795.285,440.099,794.358z
			 M438.878,801.095l44.841,3.348l-1.26,7.384l-45.071-2.709C437.89,806.454,438.385,803.778,438.878,801.095z M422.595,896.269
			l22.158-16.051l-2.931,16.051H422.595z M441.092,900.269l-3.159,17.297l-16.782-17.297H441.092z M448.994,856.999l-2.329,12.755
			l-12.115-13.118L448.994,856.999z M432.523,852.584l19.708-13.316l-2.511,13.749L432.523,852.584z M445.158,900.269h18.898
			l-21.746,15.591L445.158,900.269z M445.888,896.269l3.272-17.917l16.547,17.917H445.888z M453.04,857.102l16.244,0.408
			l-18.806,13.623L453.04,857.102z M439.965,813.279l16.827,1.011l-2.519,13.793L439.965,813.279z M453.768,853.119l3.042-16.657
			l16.576,17.15L453.768,853.119z M481.106,819.758l-2.255,13.214l-16.171-0.764L481.106,819.758z M457.875,830.626l2.939-16.095
			l19.176,1.152L457.875,830.626z M436.235,815.175l15.985,16.539l-19.051-0.9C434.208,825.631,435.23,820.42,436.235,815.175z
			 M432.375,834.781l18.086,0.854l-21.23,14.345C430.295,844.935,431.345,839.872,432.375,834.781z M427.852,856.467l1.121,0.028
			l15.684,16.982l-20.38-0.622C425.488,867.406,426.68,861.945,427.852,856.467z M423.393,876.829l18.443,0.563l-22.245,16.113
			C420.878,887.95,422.146,882.394,423.393,876.829z M417.54,902.292l15.21,15.677h-18.949
			C415.064,912.735,416.312,907.512,417.54,902.292z M412.833,921.969h20.957l-25.439,18.238
			C409.868,934.104,411.363,928.027,412.833,921.969z M433.29,943.001h-21.97l25.28-18.125L433.29,943.001z M437.355,943.001
			l3.118-17.073l16.564,17.073H437.355z M460.456,940.78l-18.251-18.811h21.461L460.456,940.78z M464.348,917.969h-18.114
			l20.639-14.798L464.348,917.969z M468.535,893.434l-14.47-15.668l17.054,0.521L468.535,893.434z M471.798,874.306l-18.118-0.553
			l20.781-15.053L471.798,874.306z M462.105,836.185l16.068,0.76l-2.301,13.484L462.105,836.185z M601.188,830.088
			c-26.481-13.06-52.018-16.621-73.856-10.297c-22.365,6.475-39.669,22.884-50.143,46.705l4.377-25.652
			c11.491-16.657,29.696-26.776,52.784-29.261c27.309-2.932,58.406,5.422,85.623,22.067l-0.004,0.047l0.096,0.01
			c9.629,5.898,18.766,12.838,27.08,20.68l16.731,22.92C643.166,856.265,622.168,840.435,601.188,830.088z M665.334,872.523
			l19.559,11.375l-11.287-0.045L665.334,872.523z M685.445,900.075l-8.912-12.21l12.262,0.049L685.445,900.075z M692.494,889.542
			l9.682,13.059h-13.277L692.494,889.542z M693.508,911.12l21.434,12.461l-12.063,0.376L693.508,911.12z M714.748,940.218
			l-9.014-12.348l11.75-0.366L714.748,940.218z M718.24,943.001l3.125-14.515l10.76,14.515H718.24z M737.103,943.001l-8.514-11.484
			l19.754,11.484H737.103z"/>
	</g>
</g>
</svg>
