<?xml version="1.0" encoding="UTF-8" standalone="no"?>
<!-- Created with Inkscape (http://www.inkscape.org/) -->

<svg
   width="73.510483mm"
   height="74.762016mm"
   viewBox="0 0 73.510483 74.762016"
   version="1.1"
   id="svg1"
   xml:space="preserve"
   xmlns="http://www.w3.org/2000/svg"
   xmlns:svg="http://www.w3.org/2000/svg"><defs
     id="defs1" /><g
     id="layer1"
     transform="translate(-79.695474,-108.58143)"><path
       class="st0"
       d="m 120.29793,156.94877 c -1.97788,2.16893 -4.28127,4.11142 -6.86772,5.6824 -0.31845,0.23353 -0.75011,0.26184 -1.10393,0.0354 -3.8213,-2.43077 -7.03048,-5.34982 -9.55325,-8.52362 -3.481628,-4.36619 -5.671796,-9.2065 -6.421907,-13.8699 -0.764259,-4.72709 -0.04948,-9.27726 2.303396,-12.97473 0.927021,-1.46129 2.112321,-2.79166 3.555931,-3.9416 3.31886,-2.64305 7.10832,-4.04066 10.88716,-4.01235 3.63732,0.0284 7.22863,1.38345 10.33166,4.21757 1.08978,0.99072 2.00618,2.12649 2.75629,3.3578 2.52984,4.16804 3.07473,9.48248 1.96373,14.86768 -1.09686,5.32151 -3.8213,10.72794 -7.85136,15.15074 z m -7.92212,-29.19756 c 4.48649,0 8.12026,3.63731 8.12026,8.12026 0,4.48648 -3.63731,8.12025 -8.12026,8.12025 -4.48649,0 -8.12026,-3.63377 -8.12026,-8.12025 -0.004,-4.48649 3.63377,-8.12026 8.12026,-8.12026 z"
       id="path1"
       style="fill:#3b82f6;fill-opacity:1;stroke-width:0.353823" /><g
       style="clip-rule:evenodd;fill:#3b82f6;fill-opacity:1;fill-rule:evenodd;image-rendering:optimizeQuality;shape-rendering:geometricPrecision;text-rendering:geometricPrecision"
       id="g1"
       transform="matrix(0.14499127,0,0,0.14609672,79.695433,108.58143)"><path
         d="m 224.639,0 c 59.668,0 116.663,23.625 158.855,65.816 58.277,58.264 79.952,144.187 56.478,223.076 -5.44,18.308 -13.169,35.634 -22.82,51.652 l 87.013,94.825 c 4.008,4.376 3.736,11.192 -0.627,15.2 l -63.894,58.345 c -4.362,4.008 -11.15,3.694 -15.145,-0.668 l -83.237,-91.553 c -35.253,21.471 -75.345,32.676 -116.623,32.676 -59.681,0 -116.678,-23.624 -158.869,-65.816 A 224.953,224.953 0 0 1 17.008,310.594 C -17.808,226.73 1.985,129.628 65.798,65.843 107.907,23.611 165.012,0 224.639,0 Z M 351.39,97.92 C 186.06,-67.451 -70.51,183.202 97.833,351.436 c 51.257,51.134 128.646,66.579 195.362,38.974 67.083,-27.864 110.692,-93.107 110.692,-165.739 0,-24.32 -4.812,-47.508 -13.523,-68.542 A 180.032,180.032 0 0 0 351.39,97.92 Z"
         id="path1-2"
         style="fill:#3b82f6;fill-opacity:1" /></g></g><style
     type="text/css"
     id="style1">.st0{fill-rule:evenodd;clip-rule:evenodd;}</style></svg>
